<!-- Generated by IcoMoon.io -->
<svg version="1.1" xmlns="http://www.w3.org/2000/svg" width="1024" height="1024" viewBox="0 0 1024 1024">
<title></title>
<g id="icomoon-ignore">
</g>
<path fill="#81c714" stroke="#82c714" stroke-linejoin="miter" stroke-linecap="butt" stroke-miterlimit="22.9256" stroke-width="58.0757" d="M984 512c0 260.68-211.32 472-472 472s-472-211.32-472-472c0-260.68 211.32-472 472-472s472 211.32 472 472z"></path>
<path fill="#ffffff" d="M783.852 209.596c-2.334 1.4-23.169 16.98-27.643 20.374-14.068 10.658-38.672 32.684-50.474 45.26-18.605 19.817-26.992 27.828-46.121 50.681-12.731 15.208-29.6 38.084-41.435 54.299l-20.030 28.88c-49.587 73.438-96.087 159.999-135.412 249.492-2.655-4.063-7.241-18.781-10.056-25.074-8.092-18.117-28.169-54.741-38.379-69.886-9.373-13.898-18.204-31.003-27.796-43.962-5.698-7.702-9.771-14.489-14.657-21.761-3.779-5.628-11.424-17.258-15.217-21.107l-32.985 23.099c-3.935 2.868-7.726 5.222-10.976 7.738l-67.472 44.912c-7.817 4.662-15.029 10.215-23 14.484l-48.802 27.246 0.109 2.082 43.832 22.736c48.115 25.867 93.484 66.33 134.991 101.251 21.445 18.038 67.385 63.867 85.402 83.179l24.345 25.679c1.92 1.946 2.306 2.139 4.019 4.183 2.518 3.006 1.747 3.261 5.451 4.799l19.436-30.446c26.707-38.921 75.881-109.8 104.95-144.877l21.797-28.164c5.699-7.669 15.535-17.42 22.67-27.254 7.462-10.283 24.654-28.439 34.778-40.134 12.412-14.339 49.494-52.774 61.442-63.456 31.476-28.159 59.849-55.148 97.935-76.916 4.158-2.377 12.624-5.976 16.054-8.532 0.883-0.814 1.032-1.033 0.772-2.104l-0.899-3.097c-5.988-12.064-6.32-10.879-13.379-30.868-2.935-12.393-4.401-25.372-5.237-38.593-0.796-12.589 0.962-75.333 2.456-84.173 0.876-12.183 2.45-25.48 4.112-36.876 1.132-7.758 1.102-9.945 2.224-17.541 0.897-6.061 2.601-11.65-1.843-16.018-7.532-7.41-17.091-0.751-28.795 5.161-4.862 2.453-8.877 4.355-13.233 7.117-5.082 2.977-5.915 3.549-12.932 8.205z"></path>
</svg>
