<!-- Generated by IcoMoon.io -->
<svg version="1.1" xmlns="http://www.w3.org/2000/svg" width="1024" height="1024" viewBox="0 0 1024 1024">
<title></title>
<g id="icomoon-ignore">
</g>
<path d="M196.707 1023.997c255.688-2.805 512.691-0.092 768.406 0l-10.365-0.009-0.11-273.641c28.171-50.124 70.275-148.082 69.567-224.519-2.345-127.288-32.273-163.791-76.464-195.465-27.233-19.516-5.84-56.084-5.84-204.764 72.455-19.029 58.438-28.805 60.351-125.586l-694.324 1.416c-0.009 181.55 7.054 44.256 41.847 138.25 20.436 55.21 12.49 120.5 12.49 190.104h-362.264c0 156.838-0.055 313.629 0.598 470.467 0.681 166.366-7.339 212.627 30.424 223.737h165.685zM126.791 840.221h90.573v142.923h-90.573v-142.923zM954.638 750.338c4.488 35.869-85.376 251.945-102.86 251.181l102.86-251.181zM837.771 999.946c-13.961-0.46-103.338-197.783-102.161-239.814l102.161 239.814zM738.783 825.542l1.692 157.463-160.848 0.147v-224.593l155.982 1.591 3.173 65.4zM199.245 676.881h72.455v81.67h-72.455v-81.67zM72.455 676.881h72.455v81.67h-72.455v-81.67zM688.309 676.881c0-80.677 0 80.677 0 0zM452.836 533.958h90.573v102.078h-90.573v-102.078zM199.245 554.366h72.455v61.262h-72.455v-61.262zM72.455 554.366h72.455v61.262h-72.455v-61.262zM851.336 636.036c-146.132 0-146.132-245.010 0-245.010 144.55 0 123.949 245.010 0 245.010zM199.245 411.444h72.455v81.67h-72.455v-81.67zM72.455 411.444h72.455v81.67h-72.455v-81.67zM452.836 370.609h90.573v102.088h-90.573v-102.088zM706.427 370.609c-51.954 110.678-45.48 133.036-18.109 265.428h-72.455c0-37.542-2.272-48.496-0.956-91.897 1.288-42.012 49.453-3.173 43.778-42.251 4.212-27.269-41.534 6.134-44.174-31.059-1.242-17.631 1.352-44.992 1.352-100.221h90.564zM742.655 339.983v0zM760.764 329.774v0zM869.501 309.494c0-2.115-0.074-2.29-0.064-3.513 0.018-1.407 64.49 6.171 67.461 11.975 1.701 3.32 0.018 1.49 3.035 5.316 0.975 1.232-6.134-3.063-23.646-8.195-14.476-2.658-24.464-3.697-32.070-3.881-1.334-0.028-14.301-0.717-14.734-1.692zM760.764 329.774v-102.088l108.737 0.138v81.67c-20.28-0.662-41.139-3.283-76.299 6.484-15.957 6.787-16.481 7.008-32.438 13.796zM615.855 227.686h90.564v81.67h-90.564v-81.67zM452.827 227.686h90.573v81.67h-90.573v-81.67z"></path>
<path d="M1012.626 1023.978c14.182-0.736 12.701-41.874-2.465-41.47l-65.069-1.352c-7.965 1.113-18.624 42.822-0.699 42.822 15.856 0 50.041 0.046 68.233 0z"></path>
</svg>
