<!-- Generated by IcoMoon.io -->
<svg version="1.1" xmlns="http://www.w3.org/2000/svg" width="1023" height="1024" viewBox="0 0 1023 1024">
<title></title>
<g id="icomoon-ignore">
</g>
<path fill="#000" d="M561.752 786.582c-5.922-48.292 23.55-121.843 58.185-156.201 45.788-45.443 82.633-60.913 146.653-67.905 50.001-5.456 119.926 21.789 155.459 57.598 45.443 45.788 60.913 82.633 67.905 146.653 5.439 49.811-21.91 120.047-57.598 155.459-45.788 45.443-82.633 60.913-146.653 67.905-49.811 5.439-120.047-21.91-155.459-57.598-44.769-45.115-60.757-82.926-68.492-145.911zM66.991 252.646v474.145h466.928c-8.080 36.119 6.664 32.925-34.013 32.977h-401.993c-14.676 0-51.486 4.593-60.36-7.683-7.476-10.325-3.557-340.752-3.557-398.436 0-33.944-8.84-88.658 32.977-101.020zM264.888 561.871h131.943v131.943h-131.943v-131.943zM99.968 561.871h131.943v131.943h-131.943v-131.943zM543.191 693.814h-113.383v-131.943h131.943c0 24.724-0.173 49.517 0.035 74.242 0.276 33.098-9.893 21.168-18.578 57.701zM594.729 607.228v-45.356h55.664c-7.994 7.321-19.562 13.709-28.592 20.874-9.323 7.407-18.629 18.906-27.055 24.465zM759.649 396.951h131.943v158.739c-16.92-4.092-55.958-26.796-94.822-26.796h-37.104v-131.943zM594.729 396.951h131.943v131.943h-131.943v-131.943zM429.809 396.951h131.943v131.943h-131.943v-131.943zM264.888 396.951h131.943v131.943h-131.943v-131.943zM99.968 396.951h131.943v131.943h-131.943v-131.943zM759.649 232.031h131.943v131.943h-131.943v-131.943zM594.729 232.031h131.943v131.943h-131.943v-131.943zM429.809 232.031h131.943v131.943h-131.943v-131.943zM264.888 232.031h131.943v131.943h-131.943v-131.943zM99.968 252.646c36.965 8.961 32.977 53.972 32.977 78.334h47.411c0.173-8.236 23.809-93.596 27.331-98.431l24.206-0.535v131.943h-131.943v-111.328zM261.47 34.324c210.95-0.19 422.591-0.19 634.248-0.19 19.51 0 58.478-7.252 61.724 16.609l0.121 556.485c-5.093-3.332-22.48-19.804-28.419-25.173-8.339-7.545-4.558-38.934-4.558-51.106v-331.895h-709.163l46.047-164.73zM211.296 83.6c-0.173 8.546-8.805 36.309-11.637 46.082l-25.708 91.783c-2.262 7.7-3.902 14.917-6.181 22.687-1.226 4.161-1.916 7.217-3.125 11.343l-4.541 11.205c-11.24-30.853-40.798-48.326-72.325-51.71l123.517-131.408zM211.296 83.6v0zM240.164 3.194l-185.915 197.517c-67.318 72.999-51.676 42.939-53.23 138.487-1.657 102.35 0.259 215.681-0.017 319.585-0.086 28.333-5.715 96.186 10.877 116.939 20.028 25.070 80.25 16.851 110.758 17.041l319.688-0.155c20.891 0.242 45.892-2.020 65.005-1.105 49.984 2.4-2.918 62.985 94.995 160.621 49.915 49.776 113.538 74.173 184.016 71.652 166.647-5.957 273.831-171.015 225.090-326.145-5.042-16.057-15.038-29.092-18.871-45.028-5.629-23.412-2.020-97.049-2.020-125.796v-383.45c0.069-26.917 4.403-100.088-7.493-120.323-18.301-31.164-74.259-21.53-105.958-21.858-96.946-1.001-624.424-2.866-636.959 2.003z"></path>
<path fill="#000" d="M297.883 100.105h593.726v32.977h-593.709v-32.977zM264.906 166.077h659.681v-98.949h-659.681v98.949z"></path>
<path fill="#000" d="M759.649 777.811c-3.194-19.769 30.025-23.809 32.632-3.16 2.383 18.958-29.006 25.553-32.632 3.16zM759.649 718.556l-0.138 9.859c-21.824 16.161-32.839 19.182-32.839 49.932 0 26.831 21.219 47.411 51.538 47.411 10.877 0 12.224-2.659 20.218-3.574l49.379 49.414 22.687-23.636-48.43-49.483c1.899-16.281 10.308-29.438-6.664-53.212-7.182-10.066-13.536-10.152-22.273-16.886l-0.483-67.543h-32.977v57.719z"></path>
<path fill="#000" d="M314.665 306.894l-21.616-20.909-24.034 23.326 44.873 44.821 78.316-77.246-22.618-23.792z"></path>
<path fill="#000" d="M809.425 471.815l-21.616-20.909-24.034 23.326 44.873 44.821 78.316-77.246-22.618-23.792z"></path>
<path fill="#000" d="M479.585 636.735l-21.616-20.909-24.034 23.326 44.873 44.821 78.316-77.246-22.618-23.792z"></path>
<path fill="#000" d="M604.691 762.013c-20.805 8.909-7.39 37.535 13.433 29.576 17.559-6.716 10.342-39.762-13.433-29.576z"></path>
<path fill="#000" d="M934.531 762.013c-20.805 8.909-7.39 37.535 13.433 29.576 17.559-6.716 10.342-39.762-13.433-29.576z"></path>
<path fill="#000" d="M654.157 877.468c-20.805 8.909-7.39 37.535 13.433 29.576 17.559-6.716 10.342-39.762-13.433-29.576z"></path>
<path fill="#000" d="M885.048 877.468c-20.805 8.909-7.39 37.535 13.433 29.576 17.559-6.716 10.342-39.762-13.433-29.576z"></path>
<path fill="#000" d="M769.611 926.933c-20.805 8.909-7.39 37.535 13.433 29.576 17.559-6.716 10.342-39.762-13.433-29.576z"></path>
<path fill="#000" d="M769.611 597.093c-20.805 8.909-7.39 37.535 13.433 29.576 17.559-6.716 10.342-39.762-13.433-29.576z"></path>
<path fill="#000" d="M654.157 646.576c-20.805 8.909-7.39 37.535 13.433 29.576 17.559-6.716 10.342-39.762-13.433-29.576z"></path>
<path fill="#000" d="M885.048 646.576c-20.805 8.909-7.39 37.535 13.433 29.576 17.559-6.716 10.342-39.762-13.433-29.576z"></path>
</svg>
