<!-- Generated by IcoMoon.io -->
<svg version="1.1" xmlns="http://www.w3.org/2000/svg" width="1434" height="1024" viewBox="0 0 1434 1024">
<title>social-instagram</title>
<g id="icomoon-ignore">
</g>
<path fill="#8ab226" d="M386.67 957.746c77.835 14.764 128.299 75.87 218.196 64.94 23.79-2.899 55.53-11.152 64.97-32.791-91.165 24.568-163.060-8.794-241.006-37.529-2.45-54.303-9.37-197.068 8.193-238.501l-50.267-1.722 11.703 27.159c1.975 8.9 4.606 177-4.384 200.507-6.617 17.294-0.172-12.38-7.405 17.931z"></path>
<path fill="#313131" d="M1378.242 721.437c12.208 0 8.334-2.743 9.248 10.647 12.85-20.133 17.254-45.812 25.325-70.41 9.708-29.553 17.052-35.604 20.007-74.158 2.374-30.881-1.823-58.95-21.608-83.447-16.815-20.81-28.987-29.356-32.902-51.691 11.552-15.668 18.759-24.78 17.83-44.736l-12.021-208.271c-26.204-5.94-72.426-10.764-98.589 3.839 22.916 10.905 58.278-18.153 90.397 9.647 15.431 20.482 0 130.804 6.788 184.688 2.354 18.689 5.632 7.627 0.419 28.21l-11.9 22.426c-35.554-92.18-4.733-127.93-16.279-183.42-16.895 24.537-18.168 151.286 28.21 223.262 20.123 31.22 35.422 30.609 36.968 60.202 7.496 9.349 4.147 13.138 6.768 15.638-0.217 26.502-8.263 50.914-17.613 75.502l-31.048 82.073zM1387.49 732.085c-0.909-13.395 2.96-10.647-9.248-10.647-10.915 38.801-33.862 73.269-50.853 108.444-8.94 18.492-17.244 35.225-24.987 55.131l16.916-16.037c11.733 13.314 21.103 24.154 27.699 39.812 7.905 18.759 3.985 31.028 16.208 47.125 1.177-57.131-17.325-57.879-39.352-90.255 9.637-20.254 19.557-38.574 30.104-58.768l23.027-46.161c0.697-1.288 1.333-2.662 2.071-3.92 0.788-1.333 1.753-2.753 2.531-3.965l5.99-7.854c7.693 36.7 22.896 49.848 28.619 94.882 4.374 34.498 4.864 79.012 14.941 109.56 14.941-91.579-43.645-196.487-43.676-217.342z"></path>
<path fill="#8ab226" d="M119.839 400.844c-0.131-7.844-3.43-8.47 14.203-8.273l58.869 1.374 14.734 22.785 2.015-39.569-27.462 1.394-182.198-0.182 0.657 40.498c22.098-24.719-0.152-28.629 91.21-24.689l0.030 194.088c-4.207 42.17-16.279 15.577-24.649 34.028l75.365 1.005c-4.485-13.218-6.738-4.435-23.694-19.057l0.919-203.397z"></path>
<path fill="#313131" d="M1058.724 918.97l47.327 0.626c-18.628-11.132-15.966-3.819-15.91-43.251l0.389-136.552c35.054-0.5 62.258-0.768 66.076 35.306 1.955 18.441-3.995 32.185-14.415 39.781l-36.513 12.956c-0.945 0.298-2.753 0.727-3.995 1.404l78.204 81.275c23.623 27.25 48.58 64.879 109.045 55.707-100.085-37.938-77.229-62.026-154.089-128.274 0.879-0.657 63.733-25.745 38.094-80.446-16.517-35.266-70.082-26.462-111.616-27.179 12.531 23.492 23.174 159.731-2.591 188.653z"></path>
<path fill="#313131" d="M292.505 456.212c9.092 20.704 26.275 63.172 29.543 87.695l-64.319-1.116 34.776-86.578zM231.616 421.325c82.204-2.081 48.641 36.473-4.117 158.332-12.132 28.028-8.132 25.497-29.614 39.7l46.59 0.030c-18.39-14.062-9.976-22.406 9.748-66.334l71.446-0.717c31.27 61.349 33.023 132.628 119.47 124.854-65.208-32.983-63.344-28.346-103.661-141.507-18.779-52.697-38.195-152.185-109.863-114.358z"></path>
<path fill="#313131" d="M592.804 757.082c15.936 16.057 30.568 67.859 34.437 86.619l-65.784-0.636 31.346-85.987zM588.147 736.707c-5.026 30.791-25.356 66.142-37.589 96.397-5.96 14.734-12.198 29.422-18.618 45.453-10.077 25.128-10.577 27.76-29.164 40.347l43.408 1.237c-11.9-16.405-10.607-8.97-1.753-33.917 5.324-14.991 7.885-17.294 11.152-33.473l77.946-0.091c10.905 61.101 49.040 137.022 119.339 122.708-62.995-17.921-69.592-29.922-102.994-128.041-28.977-85.093-35.043-140.74-110.212-129.4 29.235 8.334 25.26 1.793 48.484 18.779z"></path>
<path fill="#313131" d="M732.013 852.777c-26.422 29.134-17.84 85.502 34.038 92.048 46.469 5.869 86.609-25.078 77.178-71.774-7.384-36.528-54.141-60.404-76.729-78.522-42.393-34.028 24.548-92.458 50.964-36.301l0.828-28.997c-22.946-0.945-43.898-5.97-60.823 5.92-11.88 8.344-23.911 26.841-18.522 49.080 6.46 26.714 63.293 54.833 74.976 69.9 45.181 58.182-47.635 115.601-83.689 56.727-12.648-20.643-5.344-35.574 1.783-58.081z"></path>
<path fill="#313131" d="M976.782 421.507c12.541 21.522 7.198 2.743 10.435 22.446-11.819 14.87-16.385 25.169-24.29 43.231-21.532 49.232-45.494 117.536-21.492 164.853l-67.572 1.722c35.564 6.758 59.566-1.268 76.33 1.434 44.474 7.198 64.339 5.793 110.449-50.095 59.834-72.501 10.516-79.174-4.298-70.668l20.194 2.95c1.884 27.103 0.278 27.76-12.132 50.823-5.46 10.137-4.586 11.582-11.951 19.774-7.395 8.223-0.687 0.359-8.531 7.364-17.284 15.451-26.043 28.346-54.363 37.337-71.026 22.527-47.176-83.331-32.725-119.99 0.45-1.157 1.086-2.5 1.546-3.637l3.121-7.278c43.58-109.085 42.074-90.316 123.748-97.741-15.32-10.556-49.307-4.475-71.415-4.036 7.703-21.85-2.839-1.823 11.365-21.532l16.158-20.734c0.677-0.849 1.783-1.965 2.46-2.829l20.194-31.548c-9.001 3.995-13.239 5.672-21.3 14.602l-35.912 49.939c-10.087 14.112-10.466 10.567-30.013 13.617z"></path>
<path fill="#313131" d="M460.586 530.411c49.828 42.928 126.708 159.069 190.608 132.239-31.957-16.375-47.484-5.49-94.362-58.96-13.168-15.022-23.133-28.826-37.928-42.403-19.209-17.633-27.568-22.426-38.175-42.872 11.051-22.568 52.5-60.591 68.198-79.881l6.501-8.551c-42.979 0.409-14.451-13.097-55.141 42.888-14.653 20.143-30.19 34.947-39.7 57.55z"></path>
<path fill="#313131" d="M977.262 909.262c-19.658 8.602-33.619 6.718-55.959 3.111l-1.237-82.931c20.663-1.955 49.6-6.738 64.521 7.016l-0.945-25.396c-14.799 16.835-24.33 11.87-54.843 11.142-8.683-7.587-5.692 9.268-8.162-20.234l1.354-62.218c20.335-3.566 47.423-3.93 63.869 1.803 9.339-2.293 7.147-3.46 3.889 5.723l2.45-17.941 0.687-0.162-103.282 2.733c7.258 4.667 9.228 5.551 14.83 8.763 1.753 50.813 7.647 141.977-9.299 180.193l102.842-0.051 11.86-41.903c-8.47 18.492-12.4 25.639-32.563 30.351zM992.193 729.337l-2.45 17.941c3.258-9.188 5.45-8.016-3.889-5.723-16.446-5.733-43.529-5.364-63.869-1.803l-1.354 62.218c2.47 29.503-0.52 12.648 8.162 20.234l-2.849-80.017 59.904-0.636 3.889 5.723c-0.919 22.638-1.854 6.799 5.243 11.93 1.015-2.662 4.723-3.051 3.43-16.426-1.308-13.683 0.020-8.152-6.228-13.446v0zM977.262 909.262l-52.959 0.768 0.379-76.492 50.403-0.838c4.475 7.475 2.97 3.5 5.415 15.577l4.086-11.819c-14.92-13.754-43.857-8.97-64.521-7.016l1.237 82.931c22.345 3.606 36.301 5.49 55.959-3.111z"></path>
<path fill="#313131" d="M1238.391 740.954c-5.253-63.223-77.507-86.816-20.204-159.711 0.636-0.818 1.657-2.015 2.303-2.849 0.657-0.818 1.596-2.071 2.253-2.899l4.556-6.011c17.143-21.85 31.836-34.387 28.169-66.132-5.314-45.989-38.655-72.86-65.188-104.817-31.169-37.559-60.611-64.021-64.021-107.828-1.924 28.457 3.238 41.216 16.835 63.036l33.978 52.070c24.669 27.513 8.672-0.49 39.003 46.686 3.586 5.571 6.091 8.481 9.142 12.092 0.677 0.798 1.823 1.864 2.49 2.652l15.421 21.81c1.576 3.531 4.556 14.572 4.844 18.532 1.945 27.043-11.552 36.842-27.851 59.066l-6.859 9.471c-0.717 0.909-1.732 2.101-2.46 3-57.53 72.415 6.768 106.444 27.588 161.822z"></path>
<path fill="#313131" d="M841.084 640.698c59.096 4.536-0.308-23.871 46.898-149.195 22.325-59.258 42.342-90.654 67.592-137.84-42.484 47.393-102.666 182.981-125.471 262.543l-2.692 8.071c-4.248 9.491 1.975 18.522 13.668 16.426z"></path>
<path fill="#313131" d="M1134.427 154.625l6.879 7.682c1.596-32.563 28.745-77.189 47.792-90.861 23.366-16.794 91.22-28.295 103.58-39.2-19.628-22.108-50.964-17.481-78.674-12.259 30.841-24.093 33.649-9.071 66.97-12.541-42.711-26.533-103.453 24.411-112.823 50.474 34.978-13.658 28.806-35.033 91.351-31.589l-7.844 5.192c-27.341 12.142-113.621 31.366-117.227 123.107zM1141.307 162.308l-6.879-7.682c-8.344 12.799-11.102 21.371-0.399 35.922l7.278-28.24z"></path>
<path fill="#313131" d="M432.927 464.976l-0.288 142.725c-6.248 4.404-8.193 6.667-17.603 10.304l47.893 2.909c-24.452-40.468-14.693-169.656-1.445-189.663l-37.478-1.344 8.92 35.074z"></path>
<path fill="#313131" d="M1116.557 388.363c-17.123-25.209-33.124-56.535-25.108-99.236 3.627-19.249 11.334-27.548 24.154-40.231 38.746-38.306 97.392-34.407 148.796-75.784l14.183-12.43c10.733-11.163 20.643-26.174 26.204-49.348-19.795 30.609-24.891 45.539-62.056 66.582-29.972 16.986-67.132 22.219-97.534 36.16-27.452 12.577-36.054 17.623-47.358 38.534l-11.521 36.241c-5.753 48.641 9.471 73.729 30.24 99.524z"></path>
<path fill="#313131" d="M1192.281 337.242c-20.406-86.679 1.217-80.845 74.006-130.037l8.551-7.238c24.33-22.674 42.261-41.913 50.833-79.32-26.411 45.61-21.31 39.69-65.339 74.794-25.457 20.295-127.067 64.839-68.046 141.805z"></path>
<path fill="#313131" d="M1242.447 932.976c0.237-41.564-3.318-77.815 0.020-120.465 2.682-34.326 11.951-68.885 13.304-101.837-19.946 37.407-27.159 144.341-22.28 193.987 0.419 4.288 0.828 10.455 2.005 14.385 2.753 9.208 4.435 9.945 6.955 13.925z"></path>
<path fill="#8b8b8b" d="M1294.244 449.772c-3.5-13.875-5.046-19.178-14.84-28.23l-44.403-51.939c-8.314-10.875-14.415-21.871-20.335-29.755 13.446 47.504 35.493 72.163 54.863 85.932 18.911 13.436 7.637 12.062 24.709 23.992z"></path>
<path fill="#8ab226" d="M1259.161 609.433c40.19-27.26 97.872-66.672 165.12-48.065 7.733 7.986 10.127-18.81-6.758-15.628-25.336-7.475-59.465 3.349-82.219 8.97-26.982 6.677-17.037 7.076-33.821 18.966l-23.79 13.516c-5.91 4.925-14.683 17.027-18.532 22.239z"></path>
<path fill="#000" d="M1273.424 607.468c-11.491 0.758-0.596-0.162-12.163 0.53-1.874-5.182-0.606-0.677-7.455-28.497l-1.975-4.495c5.94 39.034-24.861 82.82 13.158 131.39-23.345-44.666-17.234-67.541-6.637-88.629 5.071-3.44 9.779-6.708 15.072-10.304z"></path>
<path fill="#313131" d="M698.051 609.003c-19.658 8.602-33.619 6.718-55.949 3.111l-1.248-82.931c20.663-1.955 49.6-6.738 64.521 7.016l-0.945-25.396c-14.799 16.835-24.32 11.87-54.833 11.142-8.693-7.587-5.703 9.268-8.172-20.234l1.354-62.218c20.335-3.566 47.423-3.93 63.879 1.803 9.329-2.293 7.137-3.46 3.889 5.723l2.44-17.941 0.687-0.162-103.282 2.733c7.258 4.667 9.228 5.551 14.83 8.773 1.763 50.802 7.647 141.967-9.299 180.182l102.842-0.051 11.86-41.903c-8.46 18.492-12.39 25.639-32.563 30.351zM712.981 429.079l-2.44 17.941c3.248-9.188 5.44-8.016-3.889-5.723-16.456-5.733-43.539-5.364-63.879-1.803l-1.354 62.218c2.47 29.503-0.52 12.648 8.172 20.234l-2.859-80.017 59.914-0.636 3.889 5.723c-0.929 22.638-1.864 6.799 5.233 11.93 1.015-2.662 4.723-3.051 3.43-16.426-1.298-13.683 0.020-8.152-6.228-13.446v0zM698.051 609.003l-52.959 0.768 0.389-76.492 50.393-0.838c4.475 7.475 2.98 3.5 5.415 15.577l4.086-11.819c-14.92-13.754-43.857-8.97-64.521-7.016l1.248 82.931c22.335 3.606 36.291 5.49 55.949-3.111z"></path>
</svg>
