<?xml version="1.0" encoding="UTF-8"?>
<!DOCTYPE svg PUBLIC "-//W3C//DTD SVG 1.1//EN" "http://www.w3.org/Graphics/SVG/1.1/DTD/svg11.dtd">
<!-- Creator: CorelDRAW 2020 (64-Bit) -->
<svg xmlns="http://www.w3.org/2000/svg" xml:space="preserve" width="15.0557mm" height="14.9812mm" version="1.1" style="shape-rendering:geometricPrecision; text-rendering:geometricPrecision; image-rendering:optimizeQuality; fill-rule:evenodd; clip-rule:evenodd"
viewBox="0 0 2066.76 2056.53"
 xmlns:xlink="http://www.w3.org/1999/xlink"
 xmlns:xodm="http://www.corel.com/coreldraw/odm/2003">
 <defs>
  <style type="text/css">
   <![CDATA[
    .fil0 {fill:#8AB226}
    .fil1 {fill:#FDFDFD}
   ]]>
  </style>
 </defs>
 <g id="Слой_x0020_1">
  <metadata id="CorelCorpID_0Corel-Layer"/>
  <path class="fil0" d="M974.94 764.63c-56.17,48.53 -237.91,249.98 -292.79,256.91 -160.95,20.34 139.83,-251.29 155.81,-267.09 123.94,-122.52 193.78,-198.84 344.38,-46.36 43.82,44.37 269.29,238.31 244.03,293.75 -40.08,87.98 -248.51,-161.65 -284.34,-196.03 -76.1,-73.02 -59.56,52.23 -59.47,103.2 0.15,79.89 17.24,498.68 -24.39,542.66 -120.91,127.69 -49.21,-486.83 -83.23,-687.04zm-69.61 -416.63c-381.76,74.21 -625.52,434.16 -552.08,817 71.71,373.83 440.38,615.22 812.46,545.2 377.57,-71.07 621.5,-435.48 549.98,-813.1 -70.74,-373.45 -436.37,-621.78 -810.36,-549.1z"/>
  <path class="fil0" d="M874.16 253.09c423.19,-85.58 852.01,188.52 934.4,614.71 83.38,431.32 -178.54,849.06 -613.52,937.01 -426.77,86.3 -850.37,-177.98 -937.32,-609.18 -86.94,-431.12 181.23,-854.56 616.44,-942.54zm-874.16 719.28l11.06 204.07c62.32,249.06 148.3,469.26 354.46,636.8 423.53,344.23 989.27,321.66 1400.1,-58.14 187.13,-125.47 293.71,-422.59 301.14,-661.95l-11.22 -206.74c-79.77,-291.63 -106.22,-407.5 -337.42,-617.65 -234.84,-213.45 -358.62,-210.15 -650.23,-268.77l-168.9 9.17c-233.81,68.75 -412.03,94.1 -622.7,321.73 -228.2,246.6 -217.39,435.28 -276.29,641.47z"/>
  <path class="fil1" d="M905.32 348c373.99,-72.69 739.62,175.64 810.36,549.1 71.52,377.63 -172.4,742.04 -549.98,813.1 -372.08,70.02 -740.75,-171.37 -812.46,-545.2 -73.44,-382.84 170.32,-742.79 552.08,-817zm11.38 -103.05c-439.33,64.3 -730.02,472.59 -666.56,907.8 63.48,435.28 472.16,722.1 902.98,659.03 439.1,-64.27 723.24,-467.21 663.34,-902.41 -59.19,-430.04 -472.54,-726.94 -899.75,-664.41z"/>
  <path class="fil1" d="M974.94 764.63c34.02,200.21 -37.68,814.74 83.23,687.04 41.64,-43.98 24.54,-462.77 24.39,-542.66 -0.1,-50.97 -16.64,-176.22 59.47,-103.2 35.83,34.37 244.25,284.01 284.34,196.03 25.26,-55.45 -200.21,-249.39 -244.03,-293.75 -150.6,-152.48 -220.44,-76.16 -344.38,46.36 -15.98,15.8 -316.76,287.44 -155.81,267.09 54.88,-6.93 236.62,-208.38 292.79,-256.91z"/>
 </g>
</svg>
