<!-- Generated by IcoMoon.io -->
<svg version="1.1" xmlns="http://www.w3.org/2000/svg" width="1024" height="1024" viewBox="0 0 1024 1024">
<title></title>
<g id="icomoon-ignore">
</g>
<path fill="#81c714" d="M1024 512c0 282.77-229.23 512-512 512s-512-229.23-512-512c0-282.77 229.23-512 512-512s512 229.23 512 512z"></path>
<path fill="#fff" d="M567.192 454.742l0.044 262.191c0.339 39.328-25.53 32.717-55.9 32.717-26.164 0-55.192 5.091-55.944-30.754-1.712-81.179 0.089-181.439 0.089-264.168-25.397 11.407-65.463 78.228-93.221 82.345-19.081 2.833-39.903-21.988-51.739-35.55-19.981-22.903 3.35-40.863 18.358-55.915 29.47-29.559 57.981-60.032 87.599-89.665 109.852-109.941 81.223-108.568 188.759-0.959 29.529 29.559 59.043 59.132 88.602 88.661 15.318 15.318 38.192 33.823 19.878 57.494-10.389 13.429-33.41 38.369-51.562 36.096-25.574-3.202-70.333-70.731-94.962-82.493zM478.59 119.341c-217.004 16.174-377.843 210.319-358.924 426.674 18.992 217.181 209.862 376.957 426.895 358.348 213.094-18.284 378.064-212.267 357.551-426.482-21.058-219.97-205.257-374.95-425.523-358.54z"></path>
</svg>
