<!-- Generated by IcoMoon.io -->
<svg version="1.1" xmlns="http://www.w3.org/2000/svg" fill="#000" width="1434" height="1024" viewBox="0 0 1434 1024">
<title></title>
<g id="icomoon-ignore">
</g>
<path fill="#82c714" d="M386.673 957.757c77.836 14.768 128.303 75.871 218.198 64.938 23.789-2.901 55.535-11.156 64.97-32.788-91.17 24.564-163.067-8.797-241.009-37.526-2.444-54.303-9.371-197.076 8.192-238.502l-50.265-1.721 11.708 27.157c1.976 8.903 4.611 176.996-4.388 200.508-6.619 17.297-0.17-12.378-7.405 17.934z"></path>
<path d="M1378.26 721.443c12.208 0 8.34-2.741 9.243 10.646 12.856-20.134 17.254-45.813 25.329-70.409 9.711-29.558 17.053-35.603 20.006-74.16 2.38-30.886-1.827-58.956-21.611-83.446-16.819-20.803-28.995-29.356-32.904-51.689 11.549-15.671 18.763-24.777 17.828-44.74l-12.027-208.275c-26.2-5.939-72.428-10.763-98.597 3.835 22.917 10.901 58.276-18.158 90.405 9.647 15.427 20.484 0 130.811 6.789 184.688 2.359 18.689 5.631 7.628 0.425 28.208l-11.9 22.429c-35.55-92.179-4.728-127.931-16.277-183.424-16.893 24.532-18.168 151.284 28.208 223.266 20.123 31.226 35.423 30.61 36.963 60.199 7.501 9.35 4.144 13.143 6.768 15.639-0.212 26.498-8.266 50.913-17.616 75.499l-31.045 82.075zM1387.503 732.089c-0.914-13.398 2.964-10.646-9.243-10.646-10.912 38.801-33.861 73.267-50.85 108.446-8.935 18.497-17.244 35.231-24.989 55.131l16.914-16.033c11.74 13.313 21.101 24.16 27.698 39.811 7.905 18.763 3.984 31.024 16.213 47.12 1.179-57.129-17.329-57.872-39.354-90.256 9.637-20.251 19.56-38.578 30.11-58.765l23.034-46.164c0.701-1.286 1.328-2.667 2.072-3.92 0.786-1.328 1.753-2.752 2.529-3.963l5.992-7.852c7.692 36.697 22.896 49.851 28.623 94.889 4.377 34.498 4.866 79.015 14.938 109.561 14.938-91.574-43.646-196.492-43.678-217.348z"></path>
<path fill="#82c714" d="M119.835 400.845c-0.138-7.841-3.432-8.468 14.205-8.277l58.871 1.371 14.736 22.779 2.019-39.566-27.465 1.392-182.202-0.181 0.659 40.501c22.099-24.724-0.149-28.633 91.212-24.692l0.032 194.091c-4.207 42.169-16.277 15.576-24.649 34.031l75.371 0.999c-4.484-13.217-6.736-4.43-23.693-19.061l0.924-203.398z"></path>
<path d="M1058.734 918.977l47.333 0.627c-18.625-11.135-15.969-3.825-15.916-43.253l0.393-136.548c35.051-0.499 62.26-0.765 66.075 35.306 1.955 18.444-3.995 32.182-14.418 39.779l-36.517 12.951c-0.946 0.297-2.752 0.722-3.995 1.402l78.208 81.278c23.629 27.252 48.576 64.885 109.051 55.705-100.084-37.941-77.23-62.027-154.089-128.282 0.882-0.659 63.737-25.743 38.089-80.45-16.521-35.263-70.080-26.455-111.622-27.178 12.537 23.491 23.172 159.731-2.592 188.651z"></path>
<path d="M292.507 456.221c9.095 20.707 26.275 63.174 29.547 87.696l-64.322-1.116 34.774-86.58zM231.617 421.329c82.203-2.082 48.64 36.474-4.112 158.328-12.133 28.028-8.128 25.499-29.611 39.704l46.589 0.032c-18.391-14.056-9.977-22.407 9.753-66.34l71.44-0.712c31.268 61.347 33.021 132.627 119.474 124.861-65.214-32.979-63.344-28.347-103.665-141.51-18.784-52.698-38.196-152.187-109.869-114.364z"></path>
<path d="M592.812 757.089c15.937 16.054 30.567 67.86 34.434 86.623l-65.788-0.637 31.343-85.985zM588.148 736.711c-5.025 30.79-25.35 66.138-37.59 96.397-5.96 14.736-12.197 29.42-18.614 45.452-10.072 25.127-10.582 27.762-29.165 40.342l43.412 1.243c-11.9-16.404-10.614-8.967-1.753-33.914 5.323-14.991 7.883-17.297 11.156-33.478l77.953-0.096c10.901 61.102 49.043 137.026 119.336 122.704-62.993-17.924-69.591-29.919-102.995-128.037-28.984-85.093-35.040-140.745-110.209-129.408 29.239 8.34 25.265 1.796 48.491 18.784z"></path>
<path d="M732.027 852.785c-26.423 29.133-17.839 85.507 34.041 92.052 46.472 5.865 86.612-25.074 77.177-71.769-7.384-36.527-54.143-60.412-76.731-78.516-42.392-34.031 24.543-92.456 50.966-36.304l0.829-29.005c-22.949-0.946-43.901-5.971-60.826 5.918-11.878 8.351-23.905 26.838-18.529 49.086 6.46 26.721 63.291 54.834 74.978 69.899 45.176 58.181-47.641 115.596-83.69 56.736-12.643-20.644-5.344-35.571 1.785-58.085z"></path>
<path d="M976.797 421.51c12.548 21.526 7.204 2.741 10.433 22.45-11.815 14.864-16.383 25.17-24.288 43.232-21.536 49.235-45.495 117.54-21.494 164.852 26.423 32.904 94.187-16.606 119.208-46.94 59.838-72.503 10.518-79.175-4.303-70.664l20.197 2.954c1.881 27.103 0.276 27.762-12.133 50.818-5.461 10.136-4.59 11.581-11.953 19.772-7.395 8.223-0.691 0.361-8.532 7.363-17.286 15.448-26.041 28.347-54.366 37.335-71.026 22.524-47.173-83.329-32.724-119.995 0.446-1.158 1.084-2.497 1.551-3.634l3.124-7.278c43.582-109.083 42.074-90.32 123.756-97.747-15.321-10.561-49.309-4.473-71.419-4.037 7.703-21.855-2.837-1.827 11.368-21.536l16.16-20.739c0.68-0.85 1.785-1.966 2.454-2.826l20.197-31.545c-8.999 3.995-13.238 5.674-21.302 14.598l-35.911 49.936c-10.083 14.11-10.465 10.572-30.015 13.621z"></path>
<path d="M460.589 530.412c49.83 42.924 126.709 159.072 190.606 132.245-31.959-16.373-47.481-5.493-94.368-58.967-13.164-15.023-23.13-28.825-37.93-42.403-19.209-17.637-27.571-22.429-38.174-42.87 11.050-22.567 52.496-60.592 68.2-79.887l6.502-8.553c-42.977 0.414-14.45-13.1-55.142 42.881-14.651 20.144-30.185 34.944-39.704 57.554z"></path>
<path d="M977.275 909.266c-19.666 8.606-33.616 6.715-55.96 3.113l-1.243-82.936c20.665-1.955 49.606-6.736 64.523 7.012l-0.946-25.393c-14.8 16.84-24.33 11.868-54.844 11.145-8.68-7.586-5.695 9.265-8.16-20.229l1.349-62.218c20.336-3.559 47.418-3.931 63.865 1.806 9.339-2.295 7.15-3.464 3.889 5.727l2.444-17.945 0.691-0.159-103.282 2.731c7.257 4.664 9.222 5.546 14.832 8.765 1.753 50.807 7.65 141.977-9.297 180.194l102.846-0.053 11.857-41.904c-8.468 18.497-12.399 25.637-32.565 30.355zM992.203 729.338l-2.444 17.945c3.251-9.19 5.45-8.022-3.889-5.727-16.447-5.737-43.529-5.365-63.865-1.806l-1.349 62.218c2.465 29.505-0.521 12.643 8.16 20.229l-2.847-80.014 59.902-0.637 3.889 5.727c-0.924 22.641-1.849 6.8 5.238 11.931 1.009-2.667 4.717-3.049 3.432-16.426-1.307-13.685 0.021-8.149-6.226-13.44v0zM977.275 909.266l-52.964 0.765 0.382-76.497 50.403-0.839c4.473 7.48 2.975 3.506 5.419 15.576l4.090-11.815c-14.917-13.748-43.858-8.967-64.523-7.012l1.243 82.936c22.344 3.602 36.304 5.493 55.96-3.113z"></path>
<path d="M1238.408 740.961c-5.249-63.227-77.507-86.814-20.208-159.72 0.637-0.818 1.657-2.019 2.306-2.847 0.659-0.818 1.594-2.072 2.252-2.901l4.558-6.014c17.138-21.855 31.831-34.381 28.166-66.128-5.312-45.983-38.652-72.864-65.193-104.823-31.173-37.558-60.614-64.024-64.024-107.829-1.923 28.453 3.241 41.213 16.84 63.036l33.978 52.071c24.67 27.518 8.67-0.489 39.003 46.685 3.581 5.567 6.088 8.478 9.148 12.091 0.68 0.797 1.827 1.859 2.486 2.656l15.416 21.812c1.572 3.538 4.558 14.577 4.845 18.529 1.944 27.040-11.549 36.846-27.858 59.062l-6.864 9.477c-0.712 0.914-1.732 2.104-2.454 2.996-57.532 72.418 6.768 106.448 27.592 161.824z"></path>
<path d="M841.089 640.707c59.094 4.537-0.308-23.874 46.897-149.202 22.322-59.264 42.339-90.66 67.594-137.844-42.488 47.397-102.666 182.977-125.477 262.545l-2.688 8.064c-4.25 9.488 1.976 18.529 13.674 16.426z"></path>
<path d="M1134.445 154.63l6.885 7.682c1.594-32.565 28.74-77.188 47.79-90.862 23.364-16.798 91.223-28.293 103.58-39.194-19.634-22.11-50.966-17.478-78.675-12.261 30.843-24.097 33.648-9.073 66.967-12.548-42.711-26.53-103.452 24.415-112.823 50.478 34.976-13.663 28.803-35.029 91.351-31.587l-7.841 5.195c-27.337 12.144-113.62 31.364-117.232 123.108zM1141.33 162.311l-6.885-7.682c-8.351 12.803-11.103 21.366-0.404 35.922l7.278-28.24z"></path>
<path d="M432.933 464.986l-0.287 142.731c-6.247 4.399-8.192 6.662-17.605 10.306l47.896 2.911c-24.458-40.469-14.694-169.654-1.445-189.671l-37.484-1.339 8.914 35.072z"></path>
<path d="M1116.575 388.361c-17.116-25.212-33.128-56.534-25.106-99.234 3.623-19.252 11.336-27.55 24.16-40.235 38.748-38.312 97.396-34.403 148.798-75.786l14.184-12.431c10.731-11.166 20.644-26.168 26.2-49.351-19.794 30.61-24.894 45.537-62.058 66.585-29.972 16.989-67.137 22.216-97.534 36.156-27.454 12.58-36.060 17.626-47.365 38.536l-11.517 36.241c-5.759 48.64 9.477 73.724 30.238 99.521z"></path>
<path d="M1192.297 337.246c-20.41-86.686 1.222-80.843 74.001-130.035l8.553-7.235c24.33-22.673 42.265-41.914 50.828-79.324-26.413 45.612-21.313 39.694-65.342 74.797-25.457 20.293-127.071 64.842-68.051 141.807z"></path>
<path d="M1242.466 932.991c0.234-41.564-3.315-77.815 0.021-120.462 2.688-34.328 11.953-68.89 13.302-101.837-19.953 37.409-27.157 144.346-22.28 193.985 0.425 4.292 0.829 10.455 2.008 14.386 2.752 9.201 4.43 9.945 6.949 13.929z"></path>
<path d="M1294.261 449.772c-3.506-13.876-5.047-19.177-14.843-28.23l-44.4-51.933c-8.319-10.88-14.418-21.876-20.336-29.76 13.44 47.503 35.497 72.163 54.866 85.932 18.912 13.44 7.639 12.059 24.713 23.99z"></path>
<path d="M1273.437 607.473c-11.485 0.754-0.595-0.159-12.165 0.531-1.87-5.185-0.606-0.68-7.458-28.495l-1.976-4.494c5.939 39.035-24.862 82.819 13.153 131.395-23.342-44.666-17.233-67.541-6.64-88.631 5.068-3.442 9.775-6.704 15.076-10.306z"></path>
<path d="M698.060 609.014c-19.666 8.606-33.616 6.715-55.949 3.113l-1.254-82.936c20.665-1.955 49.606-6.736 64.523 7.012l-0.946-25.393c-14.8 16.84-24.32 11.868-54.834 11.145-8.691-7.586-5.705 9.265-8.17-20.229l1.349-62.218c20.336-3.559 47.418-3.931 63.875 1.806 9.328-2.295 7.14-3.464 3.889 5.727l2.433-17.945 0.691-0.159-103.282 2.731c7.257 4.664 9.222 5.546 14.832 8.776 1.764 50.796 7.65 141.966-9.297 180.183l102.846-0.053 11.857-41.904c-8.457 18.497-12.388 25.637-32.565 30.355zM712.987 429.085l-2.433 17.945c3.251-9.19 5.44-8.022-3.889-5.727-16.458-5.737-43.54-5.365-63.875-1.806l-1.349 62.218c2.465 29.505-0.521 12.643 8.17 20.229l-2.858-80.014 59.912-0.637 3.889 5.727c-0.935 22.641-1.859 6.8 5.238 11.931 1.009-2.667 4.717-3.049 3.432-16.426-1.296-13.685 0.021-8.149-6.226-13.44v0zM698.060 609.014l-52.964 0.765 0.393-76.497 50.393-0.839c4.473 7.48 2.975 3.506 5.419 15.576l4.090-11.815c-14.917-13.748-43.858-8.967-64.523-7.012l1.254 82.936c22.333 3.602 36.294 5.493 55.949-3.113z"></path>
<path fill="#82c714" d="M1259.179 609.439c40.193-27.263 97.874-66.67 165.117-48.066 7.735 7.99 10.125-18.816-6.757-15.629-25.329-7.48-59.466 3.347-82.213 8.967-26.987 6.672-17.042 7.076-33.818 18.965l-23.789 13.515c-5.907 4.93-14.683 17.031-18.529 22.237z"></path>
<path fill="#82c714" d="M1260.804 608.11c-6.704-23.704-3.166-19.029-8.308-34.094-6.555-15.618-7.002-13.876-11.475-25.754-0.627-1.615-2.348-1.201-4.505 0.446-1.105 1.371-0.648 2.337 0.977 8.181l2.199 5.004c9.201 13.525 11.836 31.353 21.111 46.207z"></path>
<path d="M776.034 653.276c35.794-5.493 41.564 0.521 51.965 6.449 29.993 18.179 22.163-2.093 1.774-6.269-7.204-3.326-9.923-7.437-31.725-7.129-17.191 1.126-22.439 1.286-29.090 1.53-4.42 0.234-33.882-0.988-33.223 5.068-0.266 5.716 2.964 0.552 25.786 0.414 12.059 0.159 9.137 0.244 14.513-0.064z"></path>
<path d="M938.378 645.732c-12.197 0.255-17.127 0.181-38.907 0.68-10.89 0.691-14.141 0.106-31.024 0.924-3.347 0.042-8.096-0.287-8.308 3.91 0.637 3.071 1.987 2.975 10.89 2.816l28.74-0.914c17.244-0.797 37.856-1.551 38.61-7.416z"></path>
</svg>
