<!-- Generated by IcoMoon.io -->
<svg version="1.1" xmlns="http://www.w3.org/2000/svg" width="1024" height="1024" viewBox="0 0 1024 1024">
<title>social-instagram</title>
<g id="icomoon-ignore">
</g>
<path fill="#e6e6e6" d="M1024.003 512.001c0 282.771-229.231 512.001-512.001 512.001s-512.001-229.231-512.001-512.001c0-282.771 229.231-512.001 512.001-512.001s512.001 229.231 512.001 512.001z"></path>
<path fill="#8ab226" d="M269.486 771.766c51.207 9.714 84.406 49.913 143.55 42.724 15.649-1.906 36.534-7.335 42.744-21.571-59.979 16.162-107.277-5.787-158.558-24.691-1.611-35.726-6.165-129.652 5.389-156.907l-33.070-1.13 7.699 17.868c1.299 5.856 3.031 116.446-2.882 131.913-4.353 11.379-0.114-8.145-4.871 11.797z"></path>
<path fill="#313131" d="M921.835 616.299c8.031 0 5.484-1.806 6.085 7.006 8.454-13.245 11.351-30.14 16.66-46.322 6.385-19.442 11.216-23.423 13.162-48.789 1.563-20.317-1.199-38.783-14.216-54.899-11.062-13.689-19.072-19.316-21.645-34.006 7.599-10.306 12.341-16.302 11.729-29.433l-7.908-137.021c-17.241-3.907-47.65-7.081-64.862 2.527 15.077 7.175 38.339-11.943 59.472 6.345 10.152 13.474 0 86.058 4.468 121.506 1.548 12.295 3.706 5.020 0.278 18.56l-7.828 14.754c-23.391-60.646-3.111-84.163-10.712-120.671-11.116 16.142-11.952 99.529 18.56 146.884 13.237 20.541 23.302 20.137 24.321 39.607 4.931 6.15 2.727 8.643 4.453 10.286-0.14 17.435-5.438 33.497-11.588 49.67l-20.426 53.995zM927.92 623.305c-0.598-8.812 1.946-7.006-6.085-7.006-7.181 25.526-22.278 48.202-33.454 71.344-5.881 12.166-11.345 23.174-16.437 36.27l11.13-10.549c7.722 8.758 13.884 15.893 18.222 26.193 5.2 12.341 2.622 20.412 10.664 31.004 0.776-37.584-11.399-38.076-25.89-59.378 6.339-13.326 12.868-25.377 19.805-38.663l15.151-30.369c0.458-0.85 0.876-1.752 1.359-2.582 0.518-0.876 1.153-1.812 1.663-2.607l3.941-5.166c5.060 24.144 15.063 32.796 18.829 62.423 2.876 22.696 3.2 51.983 9.828 72.077 9.828-60.248-28.712-129.265-28.732-142.989z"></path>
<path fill="#8ab226" d="M93.94 405.383c-0.089-5.16-2.258-5.572 9.344-5.444l38.732 0.902 9.694 14.988 1.328-26.030-18.068 0.916-119.869-0.12 0.432 26.645c14.539-16.262-0.1-18.835 60.005-16.242l0.020 127.691c-2.768 27.741-10.712 10.246-16.216 22.387l49.584 0.661c-2.951-8.698-4.433-2.916-15.589-12.538l0.607-133.813z"></path>
<path fill="#313131" d="M711.626 746.254l31.139 0.412c-12.255-7.324-10.504-2.513-10.469-28.457l0.255-89.836c23.059-0.329 40.961-0.507 43.474 23.228 1.288 12.132-2.627 21.173-9.485 26.173l-24.024 8.523c-0.621 0.195-1.812 0.478-2.627 0.922l51.45 53.471c15.541 17.928 31.96 42.684 71.742 36.648-65.846-24.96-50.809-40.806-101.375-84.392 0.578-0.432 41.931-16.937 25.060-52.924-10.867-23.202-46.107-17.407-73.43-17.879 8.245 15.455 15.246 105.087-1.706 124.114z"></path>
<path fill="#313131" d="M207.536 441.808c5.982 13.623 17.287 41.559 19.436 57.695l-42.315-0.736 22.879-56.96zM167.479 418.855c54.083-1.368 32 23.998-2.707 104.166-7.982 18.44-5.349 16.774-19.482 26.119l30.652 0.020c-12.101-9.25-6.563-14.739 6.414-43.64l47.003-0.472c20.575 40.36 21.725 87.257 78.599 82.142-42.901-21.7-41.674-18.649-68.196-93.095-12.355-34.667-25.128-100.122-72.28-75.236z"></path>
<path fill="#313131" d="M405.1 639.75c10.484 10.564 20.108 44.644 22.656 56.988l-43.276-0.418 20.621-56.57zM402.035 626.344c-3.308 20.257-16.68 43.514-24.731 63.422-3.921 9.694-8.022 19.356-12.247 29.905-6.628 16.531-6.96 18.262-19.187 26.542l28.557 0.816c-7.828-10.793-6.98-5.901-1.153-22.312 3.503-9.862 5.186-11.379 7.335-22.023l51.281-0.060c7.175 40.2 32.263 90.145 78.511 80.729-41.445-11.789-45.784-19.685-67.758-84.237-19.067-55.984-23.053-92.592-72.509-85.133 19.233 5.484 16.62 1.179 31.9 12.355z"></path>
<path fill="#313131" d="M496.687 702.705c-17.381 19.167-11.734 56.253 22.392 60.557 30.572 3.861 56.98-16.499 50.775-47.217-4.857-24.029-35.618-39.742-50.48-51.659-27.89-22.387 16.147-60.826 33.528-23.883l0.547-19.078c-15.097-0.621-28.881-3.927-40.017 3.895-7.816 5.489-15.73 17.659-12.186 32.289 4.25 17.576 41.639 36.076 49.327 45.987 29.722 38.279-31.339 76.052-55.059 37.323-8.32-13.58-3.517-23.403 1.173-38.211z"></path>
<path fill="#313131" d="M657.718 418.978c8.254 14.161 4.737 1.806 6.866 14.768-7.773 9.782-10.778 16.56-15.979 28.443-14.167 32.389-29.931 77.326-14.141 108.456l-44.456 1.13c23.397 4.448 39.189-0.836 50.217 0.944 29.258 4.737 42.326 3.812 72.663-32.956 39.364-47.698 6.917-52.089-2.831-46.49l13.285 1.94c1.239 17.833 0.183 18.262-7.982 33.434-3.592 6.668-3.019 7.619-7.862 13.008-4.865 5.409-0.452 0.235-5.612 4.843-11.371 10.166-17.132 18.649-35.766 24.562-46.728 14.822-31.036-54.825-21.531-78.943 0.298-0.761 0.716-1.643 1.016-2.393l2.055-4.791c28.672-71.768 27.681-59.418 81.415-64.304-10.077-6.946-32.438-2.945-46.983-2.653 5.066-14.376-1.866-1.199 7.478-14.167l10.629-13.643c0.444-0.558 1.173-1.294 1.617-1.86l13.285-20.755c-5.921 2.627-8.712 3.732-14.012 9.608l-23.626 32.856c-6.637 9.284-6.886 6.952-19.745 8.961z"></path>
<path fill="#313131" d="M318.115 490.625c32.781 28.242 83.362 104.649 125.399 86.999-21.024-10.773-31.239-3.612-62.080-38.792-8.663-9.883-15.217-18.964-24.954-27.896-12.639-11.6-18.137-14.754-25.114-28.208 7.269-14.848 34.539-39.862 44.868-52.555l4.279-5.624c-28.274 0.269-9.505-8.618-36.279 28.214-9.639 13.251-19.859 22.993-26.119 37.861z"></path>
<path fill="#313131" d="M658.035 739.866c-12.933 5.658-22.118 4.419-36.817 2.049l-0.816-54.561c13.595-1.288 32.633-4.433 42.449 4.614l-0.621-16.708c-9.734 11.076-16.007 7.808-36.081 7.33-5.713-4.991-3.746 6.096-5.369-13.311l0.89-40.932c13.38-2.344 31.199-2.587 42.017 1.185 6.145-1.508 4.702-2.278 2.559 3.766l1.611-11.803 0.452-0.109-67.947 1.797c4.777 3.071 6.070 3.652 9.754 5.767 1.153 33.428 5.031 93.407-6.116 118.547l67.658-0.034 7.802-27.567c-5.572 12.166-8.16 16.869-21.422 19.968zM667.858 621.493l-1.611 11.803c2.144-6.042 3.583-5.275-2.559-3.766-10.818-3.772-28.637-3.529-42.017-1.185l-0.89 40.932c1.623 19.41-0.343 8.32 5.369 13.311l-1.872-52.641 39.41-0.418 2.559 3.766c-0.607 14.894-1.219 4.473 3.449 7.848 0.667-1.752 3.105-2.006 2.258-10.807-0.861-9.001 0.014-5.363-4.096-8.846v0zM658.035 739.866l-34.842 0.507 0.249-50.326 33.159-0.552c2.945 4.917 1.955 2.304 3.563 10.246l2.687-7.773c-9.817-9.047-28.855-5.901-42.449-4.614l0.816 54.561c14.699 2.373 23.883 3.612 36.817-2.049z"></path>
<path fill="#313131" d="M829.83 629.14c-3.457-41.594-50.992-57.114-13.291-105.076 0.418-0.538 1.090-1.328 1.517-1.872 0.432-0.538 1.050-1.359 1.483-1.906l2.997-3.955c11.276-14.376 20.944-22.621 18.534-43.505-3.497-30.254-25.432-47.933-42.887-68.957-20.506-24.711-39.876-42.12-42.12-70.938-1.268 18.72 2.129 27.115 11.076 41.473l22.352 34.258c16.23 18.102 5.707-0.323 25.661 30.712 2.358 3.666 4.010 5.578 6.016 7.956 0.444 0.527 1.199 1.225 1.637 1.746l10.146 14.35c1.036 2.324 2.997 9.588 3.185 12.195 1.279 17.793-7.599 24.238-18.325 38.857l-4.513 6.231c-0.472 0.598-1.139 1.382-1.617 1.975-37.847 47.644 4.453 70.030 18.148 106.464z"></path>
<path fill="#313131" d="M568.44 563.18c38.877 2.985-0.203-15.704 30.855-98.155 14.685-38.986 27.856-59.641 44.47-90.686-27.95 31.179-67.543 120.382-82.546 172.725l-1.772 5.309c-2.796 6.245 1.299 12.186 8.992 10.807z"></path>
<path fill="#313131" d="M761.431 243.396l4.528 5.051c1.050-21.422 18.909-50.783 31.442-59.776 15.375-11.047 60.011-18.614 68.144-25.79-12.913-14.545-33.528-11.5-51.759-8.065 20.292-15.853 22.138-5.97 44.058-8.254-28.099-17.455-68.061 16.062-74.226 33.205 23.013-8.987 18.949-23.048 60.099-20.784l-5.16 3.414c-17.988 7.991-74.753 20.635-77.122 80.989zM765.959 248.448l-4.528-5.051c-5.489 8.42-7.304 14.061-0.263 23.632l4.791-18.58z"></path>
<path fill="#313131" d="M299.918 447.575l-0.189 93.897c-4.11 2.896-5.389 4.385-11.58 6.777l31.508 1.915c-16.087-26.625-9.668-111.615-0.95-124.781l-24.656-0.881 5.867 23.073z"></path>
<path fill="#313131" d="M749.677 397.172c-11.265-16.585-21.794-37.195-16.519-65.288 2.384-12.664 7.458-18.122 15.893-26.468 25.492-25.203 64.075-22.636 97.892-49.859l9.33-8.18c7.061-7.344 13.58-17.221 17.241-32.464-13.022 20.137-16.376 29.959-40.827 43.803-19.719 11.176-44.166 14.619-64.169 23.789-18.062 8.274-23.72 11.594-31.159 25.352l-7.579 23.841c-3.786 32 6.231 48.505 19.894 65.474z"></path>
<path fill="#313131" d="M799.496 363.541c-13.426-57.028 0.801-53.188 48.688-85.551l5.624-4.762c16.007-14.917 27.802-27.573 33.443-52.183-17.375 30.005-14.018 26.113-42.987 49.206-16.748 13.351-83.596 42.658-44.767 93.293z"></path>
<path fill="#313131" d="M832.497 755.469c0.155-27.344-2.184-51.193 0.014-79.252 1.766-22.581 7.862-45.32 8.752-66.997-13.122 24.61-17.868 94.961-14.659 127.623 0.278 2.822 0.547 6.877 1.319 9.465 1.812 6.056 2.916 6.543 4.573 9.161z"></path>
<path fill="#8b8b8b" d="M866.572 437.572c-2.304-9.13-3.32-12.619-9.762-18.574l-29.21-34.169c-5.469-7.155-9.485-14.39-13.38-19.576 8.846 31.253 23.351 47.475 36.096 56.536 12.444 8.838 5.026 7.936 16.256 15.784z"></path>
<path fill="#8ab226" d="M843.493 542.613c26.442-17.933 64.389-43.863 108.63-31.622 5.086 5.255 6.663-12.375-4.448-10.28-16.668-4.917-39.121 2.204-54.089 5.901-17.75 4.393-11.21 4.656-22.252 12.475l-15.649 8.892c-3.887 3.24-9.659 11.205-12.195 14.633z"></path>
<path fill="#000" d="M852.878 541.32c-7.559 0.498-0.392-0.109-8.002 0.349-1.234-3.409-0.398-0.444-4.905-18.749l-1.299-2.956c3.907 25.681-16.356 54.487 8.658 86.441-15.36-29.387-11.339-44.436-4.365-58.308 3.334-2.264 6.434-4.413 9.917-6.777z"></path>
<path fill="#313131" d="M474.34 542.33c-12.933 5.658-22.118 4.419-36.811 2.049l-0.821-54.561c13.595-1.288 32.633-4.433 42.449 4.614l-0.621-16.708c-9.734 11.076-15.999 7.808-36.076 7.33-5.718-4.991-3.752 6.096-5.375-13.311l0.89-40.932c13.38-2.344 31.199-2.587 42.026 1.185 6.136-1.508 4.697-2.278 2.559 3.766l1.603-11.803 0.452-0.109-67.947 1.797c4.777 3.071 6.070 3.652 9.754 5.773 1.159 33.423 5.031 93.399-6.116 118.541l67.658-0.034 7.802-27.567c-5.564 12.166-8.151 16.869-21.422 19.968zM484.163 423.958l-1.603 11.803c2.135-6.042 3.578-5.275-2.559-3.766-10.827-3.772-28.646-3.529-42.026-1.185l-0.89 40.932c1.623 19.41-0.343 8.32 5.375 13.311l-1.88-52.641 39.418-0.418 2.559 3.766c-0.612 14.894-1.225 4.473 3.443 7.848 0.667-1.752 3.105-2.006 2.258-10.807-0.856-9.001 0.014-5.363-4.096-8.846v0zM474.34 542.33l-34.842 0.507 0.255-50.326 33.151-0.552c2.945 4.917 1.96 2.304 3.563 10.246l2.687-7.773c-9.817-9.047-28.855-5.901-42.449-4.614l0.821 54.561c14.694 2.373 23.875 3.612 36.811-2.049z"></path>
</svg>
