<?xml version="1.0" encoding="UTF-8"?>
<!DOCTYPE svg PUBLIC "-//W3C//DTD SVG 1.1//EN" "http://www.w3.org/Graphics/SVG/1.1/DTD/svg11.dtd">
<!-- Creator: CorelDRAW 2020 (64-Bit) -->
<svg xmlns="http://www.w3.org/2000/svg" xml:space="preserve" width="15.5mm" height="15.5mm" version="1.1" style="shape-rendering:geometricPrecision; text-rendering:geometricPrecision; image-rendering:optimizeQuality; fill-rule:evenodd; clip-rule:evenodd"
viewBox="0 0 1526.54 1526.54"
 xmlns:xlink="http://www.w3.org/1999/xlink"
 xmlns:xodm="http://www.corel.com/coreldraw/odm/2003">
 <defs>
  <style type="text/css">
   <![CDATA[
    .fil4 {fill:none}
    .fil7 {fill:black}
    .fil3 {fill:#313131}
    .fil2 {fill:#313131}
    .fil1 {fill:#8AB226}
    .fil6 {fill:#8AB226}
    .fil5 {fill:#8B8B8B}
    .fil0 {fill:white}
   ]]>
  </style>
 </defs>
 <g id="Слой_x0020_1">
  <metadata id="CorelCorpID_0Corel-Layer"/>
  <g id="_1690100624896">
   <circle class="fil0" cx="763.27" cy="763.27" r="763.27"/>
   <path class="fil1" d="M418.59 1143.02c74.86,14.2 123.39,72.97 209.86,62.46 22.88,-2.79 53.41,-10.73 62.49,-31.54 -87.68,23.63 -156.83,-8.46 -231.8,-36.1 -2.35,-52.23 -9.01,-189.54 7.88,-229.38l-48.35 -1.65 11.26 26.12c1.9,8.56 4.43,170.23 -4.22,192.85 -6.36,16.63 -0.17,-11.91 -7.12,17.24z"/>
   <path class="fil2" d="M1372.26 915.75c11.74,0 8.02,-2.64 8.89,10.24 12.36,-19.36 16.59,-44.06 24.36,-67.72 9.34,-28.42 16.4,-34.24 19.24,-71.32 2.28,-29.7 -1.75,-56.7 -20.78,-80.26 -16.17,-20.01 -27.88,-28.24 -31.64,-49.72 11.11,-15.07 18.04,-23.83 17.15,-43.03l-11.56 -200.31c-25.2,-5.71 -69.66,-10.35 -94.82,3.69 22.04,10.49 56.05,-17.46 86.94,9.28 14.84,19.7 0,125.81 6.53,177.63 2.27,17.97 5.42,7.34 0.4,27.13l-11.44 21.57c-34.19,-88.66 -4.55,-123.04 -15.66,-176.41 -16.25,23.6 -17.47,145.5 27.13,214.73 19.35,30.03 34.07,29.44 35.55,57.9 7.21,8.99 3.99,12.64 6.51,15.04 -0.21,25.49 -7.95,48.97 -16.94,72.61l-29.86 78.94zm8.89 10.24c-0.88,-12.88 2.85,-10.24 -8.89,-10.24 -10.5,37.32 -32.57,70.47 -48.91,104.3 -8.6,17.79 -16.59,33.88 -24.03,53.03l16.27 -15.42c11.29,12.8 20.3,23.23 26.64,38.29 7.6,18.04 3.83,29.84 15.59,45.32 1.13,-54.95 -16.66,-55.66 -37.85,-86.81 9.27,-19.48 18.81,-37.1 28.96,-56.52l22.15 -44.4c0.67,-1.24 1.28,-2.56 1.99,-3.77 0.76,-1.28 1.68,-2.65 2.43,-3.81l5.76 -7.55c7.4,35.3 22.02,47.94 27.53,91.26 4.21,33.18 4.68,75.99 14.37,105.37 14.37,-88.08 -41.97,-188.98 -42,-209.04z"/>
   <path class="fil1" d="M161.95 607.41c-0.13,-7.54 -3.3,-8.14 13.66,-7.96l56.62 1.32 14.17 21.91 1.94 -38.06 -26.41 1.34 -175.24 -0.18 0.63 38.95c21.25,-23.77 -0.15,-27.54 87.72,-23.75l0.03 186.67c-4.05,40.56 -15.66,14.98 -23.71,32.73l72.49 0.97c-4.31,-12.71 -6.48,-4.26 -22.79,-18.33l0.89 -195.62z"/>
   <path class="fil3" d="M1064.95 1105.73l45.52 0.6c-17.91,-10.71 -15.35,-3.67 -15.3,-41.6l0.37 -131.33c33.71,-0.48 59.88,-0.74 63.55,33.96 1.88,17.74 -3.84,30.95 -13.87,38.26l-35.12 12.46c-0.91,0.29 -2.65,0.7 -3.84,1.35l75.21 78.17c22.72,26.21 46.72,62.4 104.88,53.58 -96.26,-36.49 -74.28,-59.65 -148.2,-123.37 0.85,-0.63 61.3,-24.76 36.64,-77.37 -15.89,-33.92 -67.4,-25.45 -107.35,-26.14 12.05,22.59 22.29,153.63 -2.49,181.44z"/>
   <path class="fil3" d="M328.02 660.66c8.75,19.91 25.27,60.76 28.41,84.34l-61.86 -1.07 33.45 -83.27zm-58.56 -33.55c79.06,-2 46.78,35.08 -3.96,152.28 -11.67,26.96 -7.82,24.52 -28.48,38.18l44.81 0.03c-17.69,-13.52 -9.59,-21.55 9.38,-63.8l68.71 -0.69c30.08,59 31.76,127.56 114.9,120.08 -62.72,-31.72 -60.92,-27.26 -99.7,-136.1 -18.06,-50.68 -36.74,-146.37 -105.67,-109.99z"/>
   <path class="fil3" d="M616.84 950.03c15.32,15.44 29.4,65.27 33.12,83.31l-63.27 -0.61 30.15 -82.7zm-4.48 -19.6c-4.84,29.61 -24.39,63.61 -36.15,92.72 -5.73,14.17 -11.73,28.3 -17.9,43.72 -9.69,24.17 -10.17,26.7 -28.05,38.8l41.75 1.19c-11.44,-15.78 -10.2,-8.63 -1.68,-32.62 5.12,-14.42 7.58,-16.63 10.73,-32.2l74.97 -0.09c10.49,58.77 47.17,131.78 114.78,118.02 -60.59,-17.24 -66.93,-28.78 -99.06,-123.15 -27.87,-81.84 -33.7,-135.36 -106,-124.46 28.12,8.02 24.3,1.72 46.63,18.06z"/>
   <path class="fil3" d="M750.73 1042.07c-25.41,28.02 -17.16,82.24 32.74,88.53 44.69,5.64 83.3,-24.12 74.23,-69.03 -7.1,-35.13 -52.07,-58.1 -73.8,-75.52 -40.77,-32.73 23.61,-88.92 49.02,-34.91l0.8 -27.89c-22.07,-0.91 -42.22,-5.74 -58.5,5.69 -11.42,8.03 -23,25.81 -17.82,47.2 6.21,25.7 60.87,52.74 72.11,67.23 43.45,55.96 -45.82,111.18 -80.49,54.56 -12.16,-19.85 -5.14,-34.21 1.71,-55.86z"/>
   <path class="fil2" d="M986.15 627.28c12.06,20.7 6.92,2.64 10.04,21.59 -11.37,14.3 -15.76,24.21 -23.36,41.58 -20.71,47.35 -43.76,113.04 -20.67,158.55l-64.99 1.65c34.2,6.5 57.29,-1.22 73.41,1.38 42.77,6.92 61.88,5.57 106.23,-48.18 57.55,-69.73 10.11,-76.15 -4.14,-67.97l19.42 2.84c1.81,26.07 0.27,26.7 -11.67,48.88 -5.25,9.75 -4.41,11.14 -11.49,19.02 -7.11,7.91 -0.66,0.34 -8.2,7.08 -16.62,14.86 -25.05,27.26 -52.29,35.91 -68.31,21.67 -45.37,-80.15 -31.48,-115.41 0.43,-1.11 1.04,-2.4 1.49,-3.5l3 -7c41.92,-104.92 40.47,-86.87 119.02,-94.01 -14.73,-10.15 -47.42,-4.3 -68.68,-3.88 7.41,-21.02 -2.73,-1.75 10.93,-20.71l15.54 -19.94c0.65,-0.82 1.71,-1.89 2.36,-2.72l19.42 -30.34c-8.66,3.84 -12.73,5.46 -20.49,14.04l-34.54 48.03c-9.7,13.57 -10.07,10.16 -28.87,13.1z"/>
   <path class="fil3" d="M489.67 732.02c47.92,41.29 121.87,152.99 183.32,127.19 -30.74,-15.75 -45.67,-5.28 -90.76,-56.71 -12.67,-14.45 -22.25,-27.72 -36.48,-40.78 -18.48,-16.96 -26.51,-21.57 -36.72,-41.24 10.63,-21.71 50.49,-58.27 65.59,-76.83l6.25 -8.22c-41.33,0.39 -13.9,-12.6 -53.03,41.25 -14.09,19.37 -29.03,33.61 -38.18,55.35z"/>
   <path class="fil3" d="M986.61 1096.39c-18.91,8.27 -32.33,6.46 -53.82,2.99l-1.19 -79.76c19.87,-1.88 47.71,-6.48 62.06,6.75l-0.91 -24.42c-14.23,16.19 -23.4,11.41 -52.75,10.72 -8.35,-7.3 -5.48,8.91 -7.85,-19.46l1.3 -59.84c19.56,-3.43 45.61,-3.78 61.43,1.73 8.98,-2.21 6.87,-3.33 3.74,5.51l2.35 -17.25 0.66 -0.16 -99.33 2.63c6.98,4.49 8.87,5.34 14.26,8.43 1.68,48.87 7.36,136.55 -8.94,173.31l98.91 -0.05 11.4 -40.3c-8.14,17.79 -11.93,24.66 -31.32,29.19zm14.36 -173.05l-2.35 17.25c3.13,-8.83 5.24,-7.71 -3.74,-5.51 -15.82,-5.52 -41.87,-5.16 -61.43,-1.73l-1.3 59.84c2.37,28.37 -0.5,12.16 7.85,19.46l-2.74 -76.96 57.61 -0.61 3.74 5.51c-0.89,21.78 -1.78,6.54 5.04,11.47 0.98,-2.56 4.54,-2.93 3.3,-15.8 -1.26,-13.16 0.02,-7.84 -5.99,-12.93l0.66 -0.16 -0.66 0.16zm-14.36 173.05l-50.94 0.74 0.36 -73.57 48.48 -0.81c4.3,7.19 2.86,3.37 5.21,14.98l3.93 -11.37c-14.35,-13.23 -42.18,-8.63 -62.06,-6.75l1.19 79.76c21.49,3.47 34.91,5.28 53.82,-2.99z"/>
   <path class="fil2" d="M1237.76 934.52c-5.05,-60.81 -74.54,-83.5 -19.43,-153.61 0.61,-0.79 1.6,-1.94 2.22,-2.74 0.63,-0.79 1.54,-1.99 2.17,-2.79l4.38 -5.78c16.49,-21.02 30.62,-33.07 27.09,-63.6 -5.11,-44.23 -37.18,-70.07 -62.7,-100.81 -29.98,-36.12 -58.29,-61.57 -61.57,-103.71 -1.85,27.37 3.11,39.64 16.19,60.63l32.68 50.08c23.73,26.46 8.34,-0.47 37.51,44.9 3.45,5.36 5.86,8.15 8.79,11.63 0.65,0.77 1.75,1.79 2.39,2.55l14.83 20.98c1.52,3.4 4.38,14.01 4.66,17.83 1.87,26.01 -11.11,35.44 -26.79,56.81l-6.6 9.11c-0.69,0.88 -1.66,2.02 -2.36,2.89 -55.33,69.65 6.51,102.38 26.53,155.64z"/>
   <path class="fil3" d="M855.63 838.09c56.84,4.36 -0.3,-22.96 45.11,-143.49 21.47,-56.99 40.72,-87.19 65.01,-132.57 -40.86,45.58 -98.74,175.99 -120.68,252.51l-2.59 7.76c-4.09,9.13 1.9,17.82 13.15,15.8z"/>
   <path class="fil3" d="M1137.77 370.59l6.62 7.39c1.54,-31.32 27.65,-74.24 45.96,-87.39 22.47,-16.15 87.73,-27.21 99.62,-37.7 -18.88,-21.26 -49.02,-16.81 -75.67,-11.79 29.66,-23.17 32.36,-8.73 64.41,-12.06 -41.08,-25.52 -99.5,23.48 -108.51,48.54 33.64,-13.14 27.7,-33.69 87.86,-30.38l-7.54 4.99c-26.3,11.68 -109.28,30.17 -112.75,118.4zm6.62 7.39l-6.62 -7.39c-8.03,12.31 -10.68,20.55 -0.38,34.55l7 -27.16z"/>
   <path class="fil3" d="M463.07 669.09l-0.28 137.27c-6.01,4.23 -7.88,6.41 -16.93,9.91l46.06 2.8c-23.52,-38.92 -14.13,-163.17 -1.39,-182.42l-36.05 -1.29 8.58 33.73z"/>
   <path class="fil3" d="M1120.58 595.4c-16.47,-24.25 -31.86,-54.37 -24.15,-95.44 3.49,-18.52 10.9,-26.49 23.23,-38.7 37.27,-36.84 93.67,-33.09 143.11,-72.89l13.64 -11.96c10.32,-10.74 19.85,-25.17 25.2,-47.46 -19.04,29.44 -23.94,43.8 -59.68,64.04 -28.83,16.34 -64.57,21.37 -93.81,34.78 -26.4,12.09 -34.68,16.95 -45.55,37.06l-11.08 34.85c-5.53,46.78 9.11,70.91 29.08,95.72z"/>
   <path class="fil2" d="M1193.41 546.24c-19.63,-83.37 1.17,-77.76 71.18,-125.07l8.22 -6.96c23.4,-21.8 40.65,-40.31 48.89,-76.29 -25.4,43.87 -20.5,38.17 -62.84,71.93 -24.48,19.52 -122.21,62.36 -65.44,136.38z"/>
   <path class="fil2" d="M1241.66 1119.2c0.23,-39.98 -3.19,-74.84 0.02,-115.86 2.58,-33.01 11.49,-66.25 12.79,-97.94 -19.19,35.98 -26.12,138.83 -21.43,186.57 0.4,4.13 0.8,10.06 1.93,13.84 2.65,8.85 4.26,9.56 6.69,13.39z"/>
   <path class="fil4" d="M161.95 607.41l57.82 1.22 26.73 20.48c10.13,-2.86 19.89,-27.89 1.11,-51.78 -33.07,-0.9 -19.08,3.85 -25.69,8.65l26.41 -1.34 -1.94 38.06 -14.17 -21.91 -56.62 -1.32c-23.32,0.44 -6.93,-1.68 -13.66,7.96z"/>
   <path class="fil5" d="M1291.47 654.46c-3.37,-13.34 -4.86,-18.45 -14.27,-27.15l-42.7 -49.95c-8,-10.46 -13.87,-21.04 -19.56,-28.62 12.93,45.69 34.14,69.4 52.77,82.65 18.19,12.92 7.35,11.6 23.76,23.08z"/>
   <path class="fil6" d="M1257.73 808.02c38.66,-26.22 94.13,-64.12 158.81,-46.23 7.44,7.68 9.74,-18.09 -6.5,-15.03 -24.37,-7.19 -57.19,3.22 -79.07,8.63 -25.95,6.42 -16.39,6.81 -32.53,18.24l-22.88 13c-5.68,4.74 -14.12,16.38 -17.83,21.39z"/>
   <path class="fil7" d="M1271.45 806.13c-11.05,0.73 -0.57,-0.16 -11.7,0.51 -1.8,-4.98 -0.58,-0.65 -7.17,-27.41l-1.9 -4.32c5.71,37.54 -23.91,79.66 12.66,126.37 -22.45,-42.96 -16.58,-64.96 -6.38,-85.24 4.88,-3.31 9.41,-6.45 14.5,-9.91z"/>
   <path class="fil3" d="M718.06 807.61c-18.91,8.27 -32.33,6.46 -53.81,2.99l-1.2 -79.76c19.87,-1.88 47.71,-6.48 62.06,6.75l-0.91 -24.42c-14.23,16.19 -23.39,11.41 -52.74,10.72 -8.36,-7.3 -5.49,8.91 -7.86,-19.46l1.3 -59.84c19.56,-3.43 45.61,-3.78 61.44,1.73 8.97,-2.21 6.86,-3.33 3.74,5.51l2.34 -17.25 0.66 -0.16 -99.33 2.63c6.98,4.49 8.87,5.34 14.26,8.44 1.69,48.86 7.36,136.54 -8.94,173.3l98.91 -0.05 11.4 -40.3c-8.13,17.79 -11.92,24.66 -31.32,29.19zm14.36 -173.05l-2.34 17.25c3.12,-8.83 5.23,-7.71 -3.74,-5.51 -15.83,-5.52 -41.88,-5.16 -61.44,-1.73l-1.3 59.84c2.37,28.37 -0.5,12.16 7.86,19.46l-2.75 -76.96 57.62 -0.61 3.74 5.51c-0.9,21.78 -1.79,6.54 5.03,11.47 0.98,-2.56 4.54,-2.93 3.3,-15.8 -1.25,-13.16 0.02,-7.84 -5.99,-12.93l0.66 -0.16 -0.66 0.16zm-14.36 173.05l-50.94 0.74 0.37 -73.57 48.47 -0.81c4.3,7.19 2.87,3.37 5.21,14.98l3.93 -11.37c-14.35,-13.23 -42.18,-8.63 -62.06,-6.75l1.2 79.76c21.48,3.47 34.9,5.28 53.81,-2.99z"/>
  </g>
 </g>
</svg>
