<?xml version="1.0" standalone="no"?>
<!DOCTYPE svg PUBLIC "-//W3C//DTD SVG 20010904//EN"
 "http://www.w3.org/TR/2001/REC-SVG-20010904/DTD/svg10.dtd">
<svg version="1.0" xmlns="http://www.w3.org/2000/svg"
 width="1434.000000pt" height="1434.000000pt" viewBox="0 0 1434.000000 1434.000000"
 preserveAspectRatio="xMidYMid meet">
<metadata>
Created by potrace 1.14, written by Peter Selinger 2001-2017
</metadata>
<g transform="translate(0.000000,1434.000000) scale(0.100000,-0.100000)"
fill="#000000" stroke="none">
<path d="M12428 12280 c-259 -45 -610 -298 -723 -520 l-25 -50 27 11 c47 18
131 69 213 129 149 111 205 138 336 163 67 13 334 24 334 14 0 -14 -95 -61
-225 -111 -274 -105 -422 -182 -574 -296 -87 -66 -203 -186 -255 -265 -80
-120 -144 -274 -165 -393 -18 -99 -20 -116 -22 -162 -2 -28 -16 -71 -37 -113
-50 -98 -53 -150 -12 -233 18 -36 36 -62 40 -57 9 10 70 253 76 303 41 328
295 770 519 901 94 55 308 134 545 201 215 60 422 136 436 160 9 14 -37 58
-98 95 -116 71 -315 92 -528 59 -25 -4 -58 -10 -75 -12 -16 -3 -38 -7 -47 -10
-35 -10 -17 7 50 49 137 88 135 87 455 73 134 -7 150 -1 79 30 -92 40 -216 53
-324 34z"/>
<path d="M13010 11118 c-63 -114 -206 -312 -272 -377 -81 -82 -153 -136 -287
-215 -138 -81 -262 -130 -586 -230 -223 -69 -386 -131 -520 -199 -268 -133
-324 -202 -426 -517 l-63 -195 0 -170 c0 -104 5 -192 12 -227 8 -32 14 -61 14
-65 1 -13 45 -135 63 -178 26 -60 87 -162 144 -239 55 -74 70 -82 23 -13 -92
135 -170 324 -199 477 -20 107 -23 266 -8 361 3 24 8 56 11 70 10 65 47 161
85 220 54 84 214 242 309 303 81 54 260 146 282 146 8 0 18 4 24 9 5 5 56 25
114 46 58 20 159 56 225 80 327 115 512 212 699 364 191 154 291 292 360 494
32 93 30 116 -4 55z"/>
<path d="M13211 11007 c-105 -192 -169 -285 -256 -373 -115 -116 -342 -296
-515 -410 -293 -191 -409 -285 -524 -424 -87 -104 -141 -205 -162 -297 -12
-58 -12 -190 2 -253 15 -72 99 -248 140 -295 l27 -30 -8 30 c-57 235 -77 454
-51 573 37 174 129 265 516 507 230 144 335 222 447 332 182 179 266 291 339
448 36 79 87 231 82 245 -2 5 -18 -19 -37 -53z"/>
<path d="M13298 10355 c-2 -1 -43 -5 -93 -8 -49 -4 -103 -9 -120 -12 -52 -10
-169 -46 -200 -63 l-30 -16 40 -12 c51 -14 167 -10 270 10 249 49 402 36 532
-46 76 -48 104 -107 120 -253 8 -73 8 -400 -1 -1100 -5 -410 0 -513 30 -631
13 -55 13 -68 0 -128 -9 -37 -41 -113 -74 -175 -66 -125 -57 -126 -107 19 -83
242 -128 500 -129 735 0 94 11 306 18 340 26 136 25 532 -2 605 -8 21 -11 18
-30 -31 -28 -68 -59 -219 -69 -335 -13 -162 -6 -612 11 -666 3 -7 7 -44 10
-82 4 -38 8 -71 10 -75 2 -3 7 -28 10 -56 4 -27 9 -59 11 -70 3 -11 7 -31 9
-45 2 -14 12 -56 21 -95 9 -38 18 -77 20 -85 9 -44 31 -116 62 -210 97 -285
223 -506 389 -680 81 -85 123 -140 149 -189 26 -54 49 -151 37 -163 -4 -4 -23
-3 -42 3 -55 16 -246 18 -350 2 -102 -15 -466 -101 -567 -134 -47 -15 -79 -36
-134 -85 -43 -39 -123 -93 -204 -139 -93 -52 -143 -87 -167 -117 -20 -24 -46
-54 -58 -68 -12 -14 -29 -35 -37 -47 -9 -13 -19 -23 -23 -23 -4 0 -17 46 -29
103 -36 161 -48 200 -106 326 l-54 119 43 66 c70 106 91 187 90 336 -2 275
-109 507 -376 811 -140 160 -347 398 -403 464 -27 32 -55 63 -61 69 -10 11
-218 271 -232 291 -113 160 -180 320 -216 515 -3 14 -3 -31 -1 -100 5 -214 31
-271 334 -734 174 -268 214 -318 322 -409 42 -34 88 -94 173 -220 63 -95 129
-189 146 -208 74 -82 193 -264 212 -323 23 -71 32 -219 17 -286 -15 -72 -65
-164 -143 -263 -231 -296 -326 -433 -377 -542 -128 -272 -94 -494 125 -830 36
-55 89 -137 118 -183 29 -45 61 -95 70 -110 10 -15 40 -72 68 -126 50 -99 59
-102 39 -16 -6 25 -12 54 -15 65 -15 79 -80 212 -206 423 -145 246 -181 342
-181 492 -1 180 66 324 270 587 151 193 134 177 151 145 70 -129 131 -276 133
-319 2 -29 -11 -164 -16 -173 -2 -3 -6 -26 -10 -50 -3 -25 -10 -72 -15 -105
-26 -171 -30 -322 -12 -415 19 -93 21 -104 33 -135 18 -52 89 -189 110 -215
l20 -25 -17 40 c-101 244 -119 312 -119 465 0 93 5 129 23 190 42 133 57 156
138 211 41 27 74 51 74 52 0 2 -26 1 -57 -1 -32 -2 -56 -2 -53 1 9 10 214 143
295 192 407 246 775 348 1126 311 32 -4 64 -8 71 -11 7 -2 30 -6 51 -10 21 -3
54 -12 73 -20 l35 -15 -5 -77 c-11 -148 -42 -303 -92 -458 -25 -76 -165 -457
-184 -500 -5 -11 -36 -94 -70 -185 -34 -91 -80 -212 -102 -270 -23 -58 -45
-121 -50 -140 -39 -139 -162 -410 -334 -730 -159 -297 -414 -833 -402 -846 2
-1 39 31 82 71 l80 74 35 -41 c195 -226 267 -367 306 -601 9 -53 35 -125 63
-175 l27 -47 5 40 c8 62 -8 221 -31 315 -31 127 -62 178 -227 374 -46 54 -94
115 -108 136 l-25 37 92 179 c50 99 172 339 271 534 161 317 252 480 268 480
3 0 18 -42 32 -93 15 -51 60 -178 101 -283 109 -277 140 -389 162 -599 3 -27
7 -66 10 -85 7 -63 16 -154 20 -220 3 -36 7 -83 10 -105 3 -22 7 -67 10 -100
22 -256 78 -545 101 -522 7 7 18 177 18 287 0 407 -93 816 -329 1451 -79 212
-125 349 -127 383 -1 11 22 68 49 126 53 108 78 181 158 455 25 88 76 237 111
332 66 173 107 317 118 408 36 312 23 517 -44 702 -50 136 -97 211 -222 358
-174 203 -233 296 -256 401 -9 39 -7 44 41 109 60 83 103 166 117 231 11 46
13 180 6 269 -4 41 -13 198 -22 360 -2 50 -6 122 -9 160 -5 65 -11 174 -20
340 -7 123 -21 369 -30 518 -6 88 -10 159 -21 362 -6 121 -10 184 -13 211 -1
11 -109 35 -211 49 -80 10 -326 25 -332 20z"/>
<path d="M12163 8840 c107 -354 290 -629 545 -819 48 -36 96 -83 115 -111 31
-46 105 -115 114 -106 2 2 -8 39 -22 82 -25 76 -51 119 -99 167 -12 12 -116
132 -231 267 -115 135 -215 251 -221 257 -7 7 -54 75 -104 150 -112 167 -114
169 -97 113z"/>
<path d="M10570 8824 c-91 -49 -126 -89 -306 -339 -253 -354 -259 -362 -307
-379 -37 -14 -92 -22 -165 -25 l-22 -1 19 -37 c10 -21 30 -50 44 -65 17 -19
28 -44 32 -78 6 -48 4 -54 -32 -103 -76 -101 -127 -198 -234 -449 -129 -305
-219 -588 -255 -808 -2 -14 -6 -35 -9 -46 -17 -75 -25 -307 -14 -389 14 -105
20 -134 38 -196 26 -91 54 -141 102 -183 165 -141 502 -44 874 253 246 196
469 483 539 693 32 96 24 190 -21 240 -48 54 -176 77 -253 46 l-35 -15 60 -7
c90 -11 129 -17 137 -22 4 -3 7 -56 7 -120 -1 -140 -10 -169 -110 -361 -94
-181 -110 -203 -193 -275 -39 -34 -111 -99 -161 -146 -134 -127 -233 -188
-396 -242 -120 -41 -239 -46 -309 -14 -135 62 -193 210 -185 474 2 74 7 151
10 170 3 19 11 62 16 95 31 183 88 373 178 590 260 628 332 759 467 850 98 67
164 79 574 101 63 3 124 7 135 9 11 1 29 3 40 5 27 2 -31 28 -105 47 -54 13
-345 12 -522 -2 l-66 -6 14 57 c12 44 34 81 106 173 50 64 105 134 122 156 17
22 34 42 37 45 6 4 184 279 213 328 9 16 12 17 -64 -24z"/>
<path d="M9484 8668 c-176 -226 -467 -742 -663 -1178 -227 -505 -370 -876
-516 -1344 -51 -164 -53 -196 -9 -237 24 -23 33 -24 162 -26 150 -2 188 7 217
51 19 28 19 37 11 391 -2 121 -1 247 4 280 5 33 11 82 15 109 3 28 12 80 20
116 8 36 16 77 18 90 27 142 136 471 226 680 18 41 39 91 48 110 76 177 205
432 370 735 64 115 126 229 138 253 13 23 22 42 20 42 -2 0 -29 -33 -61 -72z"/>
<path d="M1925 8510 c-38 -3 -488 -5 -998 -4 l-928 0 3 -198 c2 -110 7 -197
12 -195 5 2 36 43 70 92 72 105 96 124 173 141 49 11 327 13 639 5 l22 -1 0
-982 c1 -1001 -1 -1058 -37 -1150 -16 -41 -49 -65 -99 -73 -26 -4 -59 -16 -74
-27 -29 -20 -37 -47 -15 -49 34 -3 665 -12 719 -10 17 1 17 3 0 34 -12 21 -37
42 -77 62 -33 17 -79 43 -103 59 l-42 29 4 1050 c3 741 8 1053 15 1060 11 11
174 12 496 2 72 -2 151 -4 176 -4 46 -1 46 -1 98 -77 28 -42 51 -80 51 -85 0
-5 5 -9 10 -9 6 0 10 -6 10 -14 0 -7 7 -19 15 -26 13 -11 15 -6 16 36 0 27 2
72 3 99 2 28 5 93 7 145 l4 95 -50 0 c-27 0 -81 -2 -120 -5z"/>
<path d="M2505 8149 c-58 -14 -177 -60 -171 -66 3 -3 49 -7 103 -8 194 -5 307
-49 350 -134 35 -70 27 -174 -25 -329 -23 -68 -48 -138 -56 -155 -8 -18 -30
-68 -49 -112 -19 -44 -46 -105 -60 -135 -167 -367 -286 -633 -342 -765 -37
-88 -79 -178 -94 -199 -14 -22 -59 -64 -100 -93 -41 -29 -70 -54 -65 -54 27
-3 430 -4 437 -1 4 2 -3 12 -17 23 -36 28 -66 82 -71 126 -4 45 28 147 86 271
22 48 57 122 76 165 l36 77 156 1 c86 0 247 2 358 3 l202 2 39 -85 c22 -47 83
-196 137 -331 103 -259 171 -405 232 -498 46 -70 163 -189 223 -227 45 -29
147 -73 185 -81 11 -3 43 -9 70 -15 60 -13 282 -21 289 -11 2 4 -52 36 -122
71 -124 63 -262 139 -272 150 -3 4 -24 19 -47 35 -198 134 -332 420 -663 1416
-48 146 -106 311 -129 368 -126 314 -259 492 -426 568 -63 29 -199 41 -270 23z
m508 -634 c103 -260 181 -502 202 -632 l5 -32 -317 5 c-175 3 -319 7 -321 8
-3 3 48 134 79 203 11 23 19 48 19 55 0 8 4 18 8 24 5 5 60 136 122 292 62
156 116 279 120 275 4 -4 42 -93 83 -198z"/>
<path d="M5263 7973 c-11 -15 -37 -59 -58 -98 -45 -83 -175 -279 -247 -373
-71 -93 -161 -204 -175 -220 -24 -25 -123 -181 -150 -236 l-27 -56 109 -108
c116 -114 189 -191 374 -393 174 -189 465 -475 571 -560 324 -261 574 -350
797 -284 l58 18 -55 25 c-30 13 -118 46 -195 72 -77 26 -171 62 -209 80 -171
83 -332 229 -591 536 -157 186 -208 239 -345 363 -149 134 -209 199 -260 278
-28 43 -50 83 -50 90 0 6 21 42 46 80 74 108 187 239 395 458 43 44 90 94 105
111 16 17 45 49 64 70 52 57 132 156 128 159 -2 2 -62 6 -134 10 l-131 7 -20
-29z"/>
<path d="M6857 7994 c-2 -2 -448 -13 -659 -17 -47 -1 -84 -5 -82 -9 2 -3 33
-23 69 -44 36 -21 65 -45 66 -54 0 -8 2 -40 4 -70 8 -150 18 -530 19 -730 0
-214 -10 -525 -18 -539 -2 -3 -6 -35 -10 -71 -10 -104 -27 -191 -58 -295 -11
-38 -20 -72 -19 -75 0 -3 230 -5 510 -5 l509 -1 52 186 c29 102 55 192 57 200
3 8 -14 -18 -36 -59 -46 -85 -79 -123 -137 -157 -80 -47 -122 -53 -407 -58
l-268 -4 4 379 c2 208 5 381 8 383 2 3 116 6 252 8 283 3 256 12 287 -92 l17
-55 13 45 c8 25 17 50 20 55 4 6 6 19 4 30 -2 11 -4 68 -5 127 l-3 106 -45
-38 c-90 -74 -94 -75 -304 -74 -103 1 -190 4 -194 7 -8 8 -10 49 -29 620 l-6
177 113 1 c63 0 199 2 302 3 l189 2 18 -35 c12 -26 16 -51 13 -86 l-5 -50 33
1 c46 1 63 39 60 129 -3 113 -5 123 -33 145 -25 19 -38 20 -163 18 -75 -2
-137 -4 -138 -4z"/>
<path d="M4244 7973 c3 -10 23 -90 46 -178 l41 -160 -3 -708 c-1 -389 -5 -711
-8 -716 -9 -13 -95 -69 -131 -84 -32 -14 -32 -15 -9 -17 14 -1 41 -3 60 -5 19
-1 82 -5 140 -9 58 -4 137 -9 177 -12 l72 -5 -29 64 c-49 103 -93 306 -107
496 -10 125 -10 588 0 716 7 87 16 167 32 280 12 89 46 237 64 284 11 30 19
56 18 57 -1 2 -85 6 -186 9 -173 6 -182 5 -177 -12z"/>
<path d="M7918 5825 c-4 -4 -200 -13 -347 -16 -129 -2 -204 -18 -209 -43 -6
-29 9 -35 68 -25 30 6 118 11 195 13 77 2 172 8 210 13 39 4 115 8 171 8 116
-1 144 -9 290 -90 102 -57 158 -75 176 -57 23 23 -68 101 -137 118 -16 4 -50
17 -75 29 -70 35 -126 47 -237 50 -56 2 -103 1 -105 0z"/>
<path d="M8827 5823 c-1 -1 -43 -3 -92 -4 -50 -2 -98 -5 -107 -7 -23 -5 -31
-31 -16 -50 11 -12 44 -14 233 -8 203 6 256 9 387 21 67 6 124 23 139 41 12
15 -10 16 -265 13 -153 -2 -278 -5 -279 -6z"/>
<path d="M3870 5165 c0 -2 27 -66 60 -143 l60 -140 6 -239 c12 -435 6 -1152
-11 -1413 -15 -231 -48 -402 -73 -386 -9 5 -23 -36 -37 -101 -4 -21 -3 -33 4
-34 6 -1 14 -2 19 -3 4 -1 23 -6 42 -10 99 -22 290 -84 385 -127 142 -63 309
-141 425 -199 369 -184 611 -269 865 -305 99 -14 352 -17 418 -5 23 5 63 11
89 14 79 11 230 52 309 85 110 46 212 130 257 210 13 23 13 23 -15 16 -199
-51 -392 -76 -591 -78 -111 0 -299 10 -332 18 -8 2 -37 6 -65 10 -167 20 -451
92 -714 181 -104 35 -322 113 -346 124 -11 5 -90 35 -175 66 -85 32 -156 58
-158 59 -5 4 -19 316 -28 630 -13 417 -8 1000 10 1215 4 47 16 164 22 220 7
68 42 231 58 278 15 41 15 42 -7 43 -12 0 -64 2 -115 4 -202 9 -362 14 -362
10z"/>
<path d="M12530 5126 c-75 -176 -142 -502 -175 -856 -3 -36 -8 -78 -10 -95
-12 -91 -20 -322 -20 -560 0 -270 8 -412 26 -494 11 -50 57 -151 68 -151 4 0
5 96 3 213 -8 341 -8 844 1 952 9 103 11 122 23 215 4 30 8 62 9 70 1 8 5 33
9 55 4 22 8 54 10 70 3 17 7 46 10 65 19 109 27 155 40 250 25 170 38 310 30
310 -3 0 -13 -20 -24 -44z"/>
<path d="M5490 5122 c-83 -5 -81 -18 7 -36 163 -34 227 -57 306 -109 42 -28
77 -56 77 -62 0 -18 -39 -162 -62 -229 -31 -90 -80 -208 -168 -400 -98 -215
-143 -321 -265 -621 -163 -403 -181 -435 -299 -522 l-58 -43 48 -1 c27 0 125
-3 217 -5 l169 -5 -42 55 c-25 33 -41 66 -42 83 0 15 28 100 62 188 80 206
100 262 106 305 3 19 8 37 10 39 2 2 178 4 391 4 l386 0 28 -119 c86 -372 237
-672 439 -874 159 -161 324 -238 525 -246 61 -3 130 -1 155 3 l45 9 -135 43
c-320 104 -474 228 -603 486 -89 179 -164 381 -367 995 -184 555 -222 650
-321 796 -136 202 -321 283 -609 266z m473 -445 c55 -72 134 -240 186 -397 12
-36 26 -74 31 -85 10 -23 75 -264 85 -311 l6 -31 -322 3 c-177 2 -323 5 -326
8 -3 2 55 168 128 368 73 199 142 389 153 421 11 31 23 57 27 57 4 0 18 -15
32 -33z"/>
<path d="M7756 5008 c-230 -31 -407 -272 -374 -510 13 -95 50 -160 147 -258
100 -101 117 -114 345 -279 202 -146 229 -169 277 -231 75 -100 109 -204 105
-326 -10 -340 -446 -578 -757 -413 -102 55 -200 170 -240 283 -38 110 -30 218
32 394 31 92 22 95 -32 11 -70 -110 -100 -283 -72 -419 64 -305 355 -472 722
-413 276 44 483 230 529 476 3 18 6 73 5 122 -1 165 -66 306 -207 455 -89 93
-166 155 -391 314 -99 71 -201 151 -228 180 -122 131 -115 310 18 441 76 75
132 100 230 100 64 0 89 -5 125 -23 56 -29 112 -82 152 -144 16 -27 32 -48 33
-48 2 0 3 17 3 38 0 20 1 81 2 135 1 54 0 100 -1 102 -15 13 -346 24 -423 13z"/>
<path d="M9707 4993 c-1 0 -126 -4 -277 -8 -236 -6 -326 -8 -505 -14 -27 -1
-24 -5 40 -42 85 -50 76 -41 80 -81 24 -270 24 -1159 0 -1343 -2 -16 -7 -52
-10 -79 -11 -89 -35 -204 -59 -276 l-22 -70 512 0 512 0 11 33 c38 123 102
359 98 363 -3 3 -8 -7 -11 -22 -16 -62 -109 -179 -166 -209 -81 -42 -120 -47
-396 -51 l-270 -5 2 368 c1 202 3 375 3 383 1 13 19 16 104 16 56 1 163 2 237
3 74 1 142 2 150 2 19 -1 46 -53 55 -105 7 -45 13 -42 35 22 13 38 16 72 12
167 -2 66 -5 121 -6 122 -2 2 -20 -12 -42 -30 -85 -70 -126 -82 -274 -77 -58
1 -133 3 -167 4 -63 1 -63 1 -64 31 -1 17 -2 55 -4 85 -1 30 -5 138 -9 240 -3
102 -9 245 -12 318 l-5 132 248 1 c136 1 271 2 298 3 44 1 53 -2 72 -28 19
-24 21 -37 17 -86 l-5 -58 32 3 c46 3 62 32 62 108 0 126 -2 136 -29 160 -23
20 -36 22 -136 22 -60 0 -110 -1 -111 -2z"/>
<path d="M10620 4985 c0 -3 11 -42 24 -87 76 -262 118 -809 93 -1208 -16 -251
-61 -453 -122 -550 l-25 -40 92 -1 c51 0 155 -2 231 -3 75 -2 135 0 132 3 -4
3 -29 20 -57 36 -94 56 -88 -16 -85 921 2 453 6 827 10 830 8 8 229 7 292 -1
175 -23 276 -86 325 -200 63 -146 45 -368 -38 -473 -48 -60 -61 -68 -187 -112
-66 -22 -127 -44 -135 -47 -8 -4 -43 -16 -76 -27 -34 -12 -63 -25 -64 -30 -2
-8 76 -92 590 -626 103 -107 220 -233 259 -280 265 -312 453 -435 716 -468 56
-8 178 -7 273 0 23 2 -2 16 -114 61 -272 111 -488 242 -628 382 -46 47 -137
151 -201 231 -188 234 -283 341 -432 483 l-140 133 63 33 c228 119 373 317
374 511 0 110 -42 244 -104 329 -63 87 -172 148 -325 182 -61 13 -140 17 -408
20 -183 1 -333 0 -333 -2z"/>
</g>
</svg>
