<?xml version="1.0" encoding="UTF-8"?>
<!DOCTYPE svg PUBLIC "-//W3C//DTD SVG 1.1//EN" "http://www.w3.org/Graphics/SVG/1.1/DTD/svg11.dtd">
<!-- Creator: CorelDRAW 2020 (64-Bit) -->
<svg xmlns="http://www.w3.org/2000/svg" xml:space="preserve" width="104.398mm" height="135.45mm" version="1.1" style="shape-rendering:geometricPrecision; text-rendering:geometricPrecision; image-rendering:optimizeQuality; fill-rule:evenodd; clip-rule:evenodd"
viewBox="0 0 519.46 673.97"
 xmlns:xlink="http://www.w3.org/1999/xlink"
 xmlns:xodm="http://www.corel.com/coreldraw/odm/2003">
 <defs>
  <style type="text/css">
   <![CDATA[
    .fil0 {fill:black}
    .fil2 {fill:#8AB226}
    .fil8 {fill:#E84444}
    .fil6 {fill:#ED6161}
    .fil1 {fill:#F8F6F7}
    .fil3 {fill:#FB9638}
    .fil4 {fill:#FD850A}
    .fil7 {fill:#FDCA9C}
    .fil5 {fill:#FEE2CA}
   ]]>
  </style>
 </defs>
 <g id="Слой_x0020_1">
  <metadata id="CorelCorpID_0Corel-Layer"/>
  <g id="_2791989008544">
   <path class="fil0" d="M429.98 620c9.34,-9.71 5.31,-10.2 2.22,-22.38 3.33,-4.04 7.51,-9.47 15.41,-8.68 2.68,-1.87 24.1,-2.75 30.05,-4.2l18.93 47.48 -21.51 -1.73c-10.53,1.96 -14.84,12.51 -21.51,18.85 -0.23,-0.25 -0.48,-0.64 -0.62,-0.81 -0.14,-0.17 -0.45,-0.59 -0.62,-0.79 -4.29,-4.95 -6.11,-4.83 -13.24,-3.97 -10.97,6.95 -3.03,27.4 9.81,30.2l5.89 0c4,-0.86 8.23,-3.55 12.37,-8.79 4.31,-5.45 7.68,-9.32 11.42,-14.91 5.13,1.2 23.42,3.75 29.75,2.11 21.63,-5.63 5.03,-32.91 0.15,-45.17 -3.41,-8.57 -6.14,-16.02 -9.78,-24.44 -5.28,-12.21 -6.26,-10.83 -4.51,-26.15 1.71,-15 -2.14,-18.33 6.44,-27.79 9.14,-10.08 27.05,-22.8 14.58,-44.18 -4.78,-8.19 -9.11,-11.16 -15.27,-17.64 -8.82,-9.29 -3.91,-13.78 -6.06,-28.16 -1.29,-8.59 -2.64,-17.65 -9.76,-23.15 -2.07,-1.6 -8.43,-4.74 -11.56,-5.55 -5.48,-1.42 -12.28,0.79 -14.42,-2.69 -1.45,-2.34 -0.62,-317.77 -0.61,-367.97 0,-14.29 1.32,-20.1 -5.61,-28.61 -5.68,-6.98 -12.6,-9.83 -20.95,-10.88l-35.31 0 -336.99 0 -31.15 0c-9.48,0.98 -16.75,4.18 -22.65,13.34 -7.45,11.56 -4.13,44.53 -4.13,63.01 0,20.79 -1.53,459.96 0.49,469.44 1.74,8.13 8.17,15.15 14.19,18.72 8.32,4.92 17.42,4.16 30.07,4.16 89.95,-0.02 179.9,0 269.85,0 -0.38,4.55 -3.02,9.62 -4.82,13.61l-16.81 41.11c-4.41,10.91 -7.44,18.68 2.15,26.63 6.66,5.53 25.77,2.17 33.96,0.26 5.34,7.97 14.64,20.48 24.08,23.69l8.44 0c3.26,-1.29 6.4,-4.28 9.23,-9.6 3.98,-7.48 7.66,-18.45 10.73,-26.13 3.43,-8.59 8.67,-18.67 10.72,-27.46 8.95,2.09 12.97,4.51 22.38,0 4.07,7.69 2.65,9.21 14.59,9.21z"/>
   <path class="fil1" d="M194.01 59.15c-3.38,-3.5 -5.48,-2.34 -11.56,-2.27 -4.86,0.06 -9.71,0.04 -14.57,0.04 -3.06,17.53 -31.7,6.89 -42.09,9.95 -3.97,1.17 -2.86,9.57 -6.61,19.99 -11.27,31.36 -35.59,34.38 -43.22,39.5l-0.35 315.9c18.82,4.55 31.45,15.07 39.32,29.29 13.63,24.61 -2.08,29.74 21.36,29.47 50.79,-0.58 102.23,1.36 153.43,-0.1 3.32,-23.24 11.2,-23.07 21.58,-36.32 8.69,-11.1 -0.61,-33.12 11.67,-46.26 14.17,-15.15 33.55,-4.17 46.04,-11.91 4,-2.48 13.17,-10.98 13.89,-15.44l0.06 -263.31c-2.49,-3.64 -3.81,-2.97 -8.81,-4.81 -3.24,-1.19 -6.48,-2.85 -8.89,-4.28 -18.57,-11.03 -27.03,-28.25 -30.25,-51.45 -30.39,-2.63 -92.33,0.65 -128.97,-0.33 -8.13,-0.22 -9.81,-1.3 -12.03,-7.68z"/>
   <path class="fil2" d="M167.88 56.93c4.86,0 9.71,0.01 14.57,-0.04 6.08,-0.07 8.18,-1.24 11.56,2.27 -0.72,-14.29 10.83,-12.14 22.61,-12.11l103.99 0c38.69,-0.07 29.6,11.58 37.3,32.76 10.01,27.49 28.24,22.46 38.28,31.52 10.74,9.69 6.58,46.27 6.58,63.75 0,23.26 0,46.51 0,69.77 0,44.51 -2.24,95.06 0.16,138.82 8.61,1.48 10.34,2.82 16.66,4.56l18.29 16.04c2.19,-95.4 0.09,-204.88 0.09,-302.9l-0.46 -74.77c-2.1,-7.96 -10.84,-6.84 -19.12,-6.87l-380.84 -0.02c-22.59,-0.13 -16.89,5.15 -16.89,59.27l0 381.74c0,24.45 -1.28,52.41 -0.04,76.41 0.77,14.85 14.22,11.01 27.49,11l190.87 -0c23.79,0 53.02,1.51 76.15,-0.27 -0.7,-18.72 -9.33,-27.31 -27.44,-27.14l-165.39 -0.26c-17.98,-2.34 -16.02,-15.97 -21.48,-32.18 -5.15,-15.29 -12.92,-21.29 -28.66,-26.61 -18.33,-6.2 -16.31,-17.78 -16.31,-39.13l0 -275.12c-0,-19.29 -2.29,-34.66 14.62,-40.8 15.72,-5.7 23.95,-10.37 29.78,-25.57 3.9,-10.16 1.73,-30.87 21.63,-33.64 7.42,-1.04 19.63,-0.27 27.59,-0.32 11.1,-0.08 16.55,-0.74 18.38,9.82z"/>
   <path class="fil3" d="M391.72 583.52l17.71 -15.58c5.91,-5.08 10.93,-10.76 21.69,-11.3 11.35,-0.57 20.83,1.71 26.53,-6.33 5.68,-8.02 1.65,-18.52 4.43,-28.46 3.75,-13.42 30.38,-22.3 9.07,-41.87 -12.08,-11.1 -13.08,-30.44 -16,-51.08 -44.96,-1.3 -39.31,-38.02 -59.64,-19.68 -6.13,5.53 -15,15.81 -26.53,18.34 -13.58,2.98 -32,-3.49 -33.66,10.93 -1.71,14.8 0.32,26.48 -7.67,37.17 -4.08,5.46 -20.33,17.41 -16.64,26.08 3.56,8.35 14.99,14.53 20.04,24.92 5.55,11.42 1.51,28.29 6.62,39.28 9.69,2.36 21.86,1.08 32.16,3.59 12.77,3.11 14.27,10.02 21.89,13.98z"/>
   <path class="fil0" d="M390.77 443.32c-73.37,18.92 -45.43,127.49 26.89,110.6 26.48,-6.18 50.14,-33.87 42.45,-68.05 -6.09,-27.08 -34.39,-51.57 -69.34,-42.55z"/>
   <path class="fil0" d="M119.09 356.22c-9.67,3.19 -9.04,16.51 0.43,18.59l94.47 0.44c16.64,0 118.42,1.75 125.81,-0.66 8.16,-2.67 9.09,-16.63 -1.07,-18.73l-94.46 -0.34c-16.91,0 -117.84,-1.71 -125.18,0.71z"/>
   <path class="fil0" d="M117.38 248.18c-8.61,4.68 -6.27,16.57 3.66,18.22l94.27 0.2c15.78,0 120.08,1.62 125.88,-1.17 7.6,-3.65 6.99,-15.8 -2.27,-18.07 -5.67,-1.39 -218.28,-0.95 -221.53,0.82z"/>
   <path class="fil0" d="M119.58 193.24c-10.47,3.59 -9.26,16.08 -0.12,18.53 5.02,1.35 218.46,0.84 221.53,-0.53 7.22,-3.24 7.62,-15.72 -1.41,-18.15 -5.08,-1.37 -217.12,-0.83 -219.99,0.15z"/>
   <path class="fil0" d="M118.06 302.5c-9.25,5.22 -6.98,16.71 2.74,18.23l219.81 -0.66c9,-3.52 7.22,-17.01 -2.93,-18.67l-94.74 -0.22c-15.38,0 -119.79,-1.56 -124.88,1.32z"/>
   <path class="fil0" d="M119.79 410.54c-6.04,2.08 -10.93,8.43 -5.38,15.45 4.08,5.16 14.54,3.68 21.91,3.67 22.97,-0.04 144,1.08 149.52,-1.02 5.73,-2.18 7.73,-10.31 3.3,-15.42 -4.35,-5.02 -14.14,-3.31 -21.17,-3.3 -22.38,0.04 -143.48,-1 -148.17,0.62z"/>
   <path class="fil4" d="M391.72 583.52c1.84,3.52 6.1,7.22 11.82,9.37 9.78,-1.69 17.81,-14.79 27.6,-20.31 11.04,-6.23 29.71,-1.57 40.1,-7.3 5.9,-10.01 1.2,-29.07 7.34,-40.05 11.3,-20.21 32,-20.75 10.73,-41.02 -22.11,-21.07 -11.73,-28.54 -17.29,-52.65 -4.48,-1.93 -10.69,-2.46 -16.87,-2.65 2.92,20.63 3.92,39.98 16,51.08 21.31,19.57 -5.32,28.46 -9.07,41.87 -2.78,9.95 1.24,20.44 -4.43,28.46 -5.7,8.04 -15.18,5.76 -26.53,6.33 -10.76,0.54 -15.78,6.22 -21.69,11.3l-17.71 15.58z"/>
   <path class="fil5" d="M379.21 525.68c19.35,0.73 28.52,-2.97 39.42,-13.01 10.07,-9.28 13.99,-18.71 14.73,-36.36 -1.01,-3.82 0.89,0.63 -1.12,-2.3l-8.35 -7.34c-4.33,-2.56 -8.89,-4.51 -14.28,-5.2 -38.3,-4.88 -55.77,42.29 -30.4,64.21z"/>
   <path class="fil0" d="M156.45 139.36c-5.61,2.87 -9.2,8.03 -4.36,14.65 3.55,4.87 11.64,3.99 18.45,3.95 20.82,-0.11 127.82,1.38 132.96,-1.35 3.03,-1.61 15.67,-18.59 -14.47,-18.41 -20.57,0.12 -127.77,-1.3 -132.58,1.15z"/>
   <path class="fil6" d="M429.98 620c1.54,3.55 2.71,7.07 4.41,11.28 1.68,4.18 3.79,8.47 4.7,12.49 7.12,-0.86 8.95,-0.98 13.24,3.97 0.17,0.2 0.48,0.62 0.62,0.79 0.14,0.17 0.39,0.56 0.62,0.81 6.68,-6.33 10.98,-16.89 21.51,-18.85 3.07,-4.15 -3.81,-15.34 -6.02,-20.72 -2.99,-7.3 -5.82,-14.13 -8.45,-20.86 -5.37,0.37 -8.04,1.41 -13,0.04 -7.9,-0.79 -12.08,4.64 -15.41,8.68 3.09,12.18 7.12,12.67 -2.22,22.38z"/>
   <path class="fil6" d="M344.36 635.62c3.06,-2.93 18.7,-41.28 19.51,-47.22 -12.02,-1.6 -20.51,-0.83 -32.58,-3.71l-19.38 47.45c16.63,-1.23 20.71,-4.98 32.45,3.47z"/>
   <path class="fil7" d="M379.21 525.68c19.65,22.85 72.42,3.4 61.12,-37.28l-3.98 -9.16c-2.62,-3.35 -1.05,-1.37 -2.99,-2.92 -0.74,17.65 -4.66,27.07 -14.73,36.36 -10.89,10.04 -20.07,13.75 -39.42,13.01z"/>
   <path class="fil8" d="M447.61 588.95c4.96,1.37 7.63,0.33 13,-0.04 2.63,6.73 5.46,13.56 8.45,20.86 2.21,5.38 9.09,16.57 6.02,20.72l21.51 1.73 -18.93 -47.48c-5.95,1.45 -27.37,2.33 -30.05,4.2z"/>
   <path class="fil8" d="M344.36 635.62c2.2,4.67 7.64,10.33 11.38,14.23l21.38 -52.09c-3.64,-4.96 -6.97,-7.48 -13.24,-9.36 -0.81,5.93 -16.46,44.29 -19.51,47.22z"/>
  </g>
 </g>
</svg>
