<?xml version="1.0" encoding="UTF-8"?>
<!DOCTYPE svg PUBLIC "-//W3C//DTD SVG 1.1//EN" "http://www.w3.org/Graphics/SVG/1.1/DTD/svg11.dtd">
<!-- Creator: CorelDRAW 2020 (64-Bit) -->
<svg xmlns="http://www.w3.org/2000/svg" xml:space="preserve" width="135.45mm" height="135.45mm" version="1.1" style="shape-rendering:geometricPrecision; text-rendering:geometricPrecision; image-rendering:optimizeQuality; fill-rule:evenodd; clip-rule:evenodd"
viewBox="0 0 1055.72 1055.72"
 xmlns:xlink="http://www.w3.org/1999/xlink"
 xmlns:xodm="http://www.corel.com/coreldraw/odm/2003">
 <defs>
  <style type="text/css">
   <![CDATA[
    .fil0 {fill:black}
    .fil3 {fill:#333333}
    .fil6 {fill:#626974}
    .fil5 {fill:#8AB226}
    .fil4 {fill:#CCCCCC}
    .fil2 {fill:#F8DE65}
    .fil1 {fill:white}
   ]]>
  </style>
 </defs>
 <g id="Слой_x0020_1">
  <metadata id="CorelCorpID_0Corel-Layer"/>
  <g id="_2791994005824">
   <path class="fil0" d="M832.4 115.47c-13.73,15.62 -8.25,18.63 1.73,35.98 11.48,19.95 36.66,56.26 34.16,73.16 -6.37,43.12 -62.61,10.38 -71.63,33.97 -3.34,8.73 -0.38,133.36 -1.8,156.91l-94.63 -75.27c0,-14.27 1.81,-69.2 -0.83,-78.97 -5.86,-21.77 -43.79,-4.69 -61.73,-18.47 -21.56,-16.55 -7.33,-37.86 3.11,-55.65 16.15,-27.52 78.6,-141.03 89.37,-149.78 20.39,-16.55 38.37,0.69 48.89,18.66 20.49,34.98 16.01,38.07 39.53,34.67 11.96,-17.59 4.5,-21.84 -15.83,-56.29 -13.09,-22.19 -31.13,-32.52 -49,-34.38l-12.04 0c-18.77,1.93 -36.03,12.69 -45.51,28.16l-94.19 163.55c-16.02,32.19 -3.34,68.02 28.14,83.31 12.72,6.18 20.34,5.4 37.9,5.4l0 45.36c-11.52,-2.68 -21.12,-7.87 -33.86,-11.5 -91,-25.96 -169.08,-19.92 -256,16.5 -7.11,2.98 -10.16,5.7 -17.37,7.38 -1.67,-7.17 -6.92,-13.88 -10.72,-20.21l-58.75 -102.08c-7.67,-13.73 -15.76,-29.24 -26.91,-39.07 -26.18,-23.07 -64.5,-27.89 -97.37,-7.65 -23.06,14.2 -38.2,49.41 -54.08,75.82l-94.34 163.41c-9.34,15.49 -16.37,30.56 -18.68,45.91l0 21.12c1.59,10.18 5.61,20.61 12.71,31.49 19.33,29.64 44.31,37.45 92.45,37.45 0,136.78 0,273.55 0,410.33 0,28.36 -6.1,65.14 17.03,86.06 11.47,10.37 25,13.91 41.07,14.97l47.06 0c89.69,0 107.22,-0.73 107.22,-98.97 31.62,21.18 52.13,34.2 90.97,47.19 100.47,33.61 192.91,26.01 286.39,-20.36 19.48,-9.66 27.5,-16.25 43.29,-26.82 0,48.15 -1.06,74.86 31.28,92.44 5.58,3.04 17.91,5.18 33.18,6.54l89.79 0c10.7,-0.99 19.01,-2.36 23.1,-4.1 16.63,-7.03 23.54,-14.74 30.94,-30.91 4.68,-10.23 4.18,-14.22 4.09,-28.9 -0.24,-41.9 -0.01,-83.88 -0.01,-125.79 32.28,0 62.13,1.23 86.03,-27.38 11.65,-13.94 17.45,-27.57 19.13,-41.04l0 -17.36c-4.02,-34.18 -30.25,-67.74 -50.12,-103.29 -14.15,-25.32 -88.5,-161 -108.13,-178.48 -29.03,-25.87 -51.04,-11.96 -60.39,-26.21 -17.23,-26.27 -10.24,-26.01 -10.24,-76.36 0,-38.49 0,-76.98 0,-115.47 22.11,0 39.68,-0.34 57.3,-18.99 36.86,-39.03 3.61,-78.04 -11.93,-106.78 -4.63,-8.56 -9.86,-16.19 -14.4,-24.78 -6.73,-12.75 -7.19,-14.4 -25.41,-14.4z"/>
   <path class="fil1" d="M512.94 457.74c-5.96,-8.48 -3.63,-23.42 -3.63,-38.06 -9.31,6.17 -21.62,11.3 -31.27,17.14 -49.07,29.69 -88.34,80.46 -108.3,135.02 -5.25,14.34 -21.15,66.82 -13.15,79.34 11.82,-50.89 69.02,-39.04 121.74,-39.04 1.53,-27.26 -3.7,-49.37 11.6,-68.6 23.8,-29.89 85.66,-22.92 87.15,33.71 3.45,130.55 2.63,133.29 -102.83,133.29 -49.87,0 -106.87,11.21 -117.42,-39.25l2.84 43.4c8.33,39.63 22.51,69.95 44.54,101.77 20.93,30.23 75.42,78.86 108.19,86.55 -0.05,-17.94 -5.63,-50.12 17.39,-47.76 19.9,2.05 13.51,37.14 13.51,55.07 28.8,-1.71 75.72,-11.42 94.63,-25.75 -4.5,-14.33 -10.94,-10.4 -8.85,-29.62 22.36,-22.26 26.47,1.8 36.91,13.31 7.89,-3.78 9.05,-4.42 14.26,-10.45 -22.48,-9.67 -45.79,-37.72 -45.69,-72.23 0.09,-29.54 23.68,-62.59 36.28,-83.8l75.49 -130.7c4.16,-7.28 8.71,-11.49 5.67,-20.04 -10.46,2.75 -27.43,18.01 -36.47,3.48 -10.82,-17.39 10.48,-25.13 19.84,-31.3 -10.72,-18.85 -50.1,-61.37 -69.9,-69.17 -5.59,8.59 -11.82,27.67 -28.81,20.75 -16.75,-6.82 -2.77,-26.67 1.86,-37.05 -18.74,-9.75 -70.75,-28.13 -95.24,-24.42 0,9.79 1.33,38.22 -1.59,45.76 -2.19,5.67 -7.48,9.17 -15.57,8.42 -9.11,-0.85 -9.75,-4.33 -13.21,-9.79zm-0.53 445.28c-32.77,-7.7 -87.27,-56.32 -108.19,-86.55 -22.03,-31.82 -36.21,-62.15 -44.54,-101.77l-2.84 -43.4 -0.25 -20.12c-8,-12.51 7.9,-64.99 13.15,-79.34 19.96,-54.56 59.23,-105.33 108.3,-135.02 9.65,-5.84 21.96,-10.96 31.27,-17.14 0,14.64 -2.33,29.58 3.63,38.06l-0.52 -44.39c-25.01,-3.87 -76.04,14.73 -95.2,24.48 4.39,9.97 17.97,28.15 3.21,36.31 -17.28,9.55 -23.79,-11.38 -30.72,-19.65 -21.61,9.16 -56.08,48.78 -69.26,68.63 9.12,6.66 28.65,12.47 20.44,30.01 -7.08,15.11 -25.92,2.97 -35.72,-1.94 -13.79,14.92 -24.54,68.63 -26.33,94.18 18.28,2.04 53.48,-6.86 55.11,14.62 1.84,24.19 -33.54,15.83 -54.73,17.2 -0.4,24.92 12.6,80.25 25.95,94.36 10.66,-4.94 26.68,-16.74 35.24,-2.55 7.71,12.77 -4,20.5 -10.81,24.53 -2.41,1.43 -1.71,0.81 -3.9,2.38l-4.78 4.15c8.89,13.83 20.69,28.6 30.48,38.31 6.95,6.9 27.91,25.77 38.32,29.81 10.33,-11.07 14.48,-35.7 36.89,-13.16 2.13,19.56 -4.66,15.18 -8.68,29.58 20.68,14.59 61.85,23.05 91.39,25.65 3.23,-3.61 1.89,3.36 3.11,-7.21z"/>
   <path class="fil2" d="M233.78 845.62c5.41,9.4 11.87,16.25 16,24.9 14.29,-6.28 20.61,-1.87 28.36,8.06 43.28,55.45 122.63,96.99 193.94,109.39 77.98,13.56 148.7,-1.47 215.46,-36.44 14.97,-7.84 43.12,-25.24 51.56,-35.56l0.7 -49.79c-29.16,-3.18 -28.43,12.87 -72.16,38.56 -193.92,113.94 -455.24,-46.37 -416.68,-288.68 38.82,-243.96 353.04,-317.23 498.71,-126.51 5.22,6.83 19.38,30.08 23.55,33.57 6.51,-7.95 9.59,-14.2 16,-20.51 6.07,-5.96 13.78,-9.43 20.25,-15.6 -45.53,-69.93 -106.51,-120.2 -189.61,-143.89 -272.62,-77.72 -503.13,196.75 -398.01,445.38 18.15,42.94 25.99,37.04 11.92,57.11z"/>
   <path class="fil3" d="M168.05 216.3c-4.31,19.57 -69.23,176.3 -82.62,215.51 -12.31,36.03 -3.34,53.21 8.46,80.22 20.21,-0.35 38.23,-4.96 42.3,15.02 15.88,1.3 25.17,5.66 31.19,16.98 7.64,14.38 0.19,33.81 5.96,44.19 7.75,-52.05 34.77,-101.28 59.57,-136.73 13.08,-18.69 31.1,-39.74 45.98,-53.02l55.21 -43.81c-4.2,-11.99 -55.22,-97.79 -65.7,-115.83 -11.72,-20.17 -19.87,-41.51 -42.24,-48.5 -26.27,-8.21 -55.19,7.47 -58.1,25.98z"/>
   <path class="fil4" d="M832.4 115.47c-3.24,-2.98 -12.58,-19.45 -13.81,-24.79 -23.53,3.4 -19.04,0.31 -39.53,-34.67 -10.53,-17.97 -28.5,-35.21 -48.89,-18.66 -10.77,8.75 -73.22,122.26 -89.37,149.78 -10.44,17.79 -24.67,39.1 -3.11,55.65 17.94,13.77 55.86,-3.3 61.73,18.47 2.63,9.78 0.83,64.71 0.83,78.97l94.63 75.27c1.42,-23.55 -1.54,-148.18 1.8,-156.91 9.02,-23.59 65.26,9.16 71.63,-33.97 2.5,-16.9 -22.68,-53.21 -34.16,-73.16 -9.98,-17.35 -15.47,-20.36 -1.73,-35.98z"/>
   <path class="fil0" d="M356.58 651.18l0.25 20.12c10.55,50.46 67.55,39.25 117.42,39.25 105.46,0 106.28,-2.74 102.83,-133.29 -1.5,-56.63 -63.35,-63.61 -87.15,-33.71 -15.31,19.23 -10.07,41.33 -11.6,68.6 -52.73,0 -109.93,-11.85 -121.74,39.04z"/>
   <path class="fil3" d="M265.68 1021.9c16.85,0.05 19.49,-16.1 19.43,-34.21 -0.04,-12.99 1.56,-42.6 -0.25,-53.6 -3.31,-20.1 -51.54,-34.55 -35.08,-63.58 -4.13,-8.64 -10.6,-15.5 -16,-24.9 -15.37,1.79 -19.73,-1.51 -25.92,-14.26 -5.05,-10.4 -9.68,-19 -13.89,-29.41 -7.72,-19.06 -17.41,-45.44 -20.83,-67.52 -5.23,8.64 -1.89,123.25 -1.89,143.97 0,26.79 -3.95,125.45 4.6,142.4 13.43,4.8 72.89,1.76 89.84,1.11z"/>
   <path class="fil3" d="M265.68 1021.9c-16.95,0.65 -76.42,3.69 -89.84,-1.11 -8.55,-16.95 -4.6,-115.61 -4.6,-142.4 0,-20.73 -3.33,-135.33 1.89,-143.97 -8.59,-57.77 -10.68,-87.75 0.19,-146.19 -5.77,-10.38 1.69,-29.8 -5.96,-44.19 -6.02,-11.33 -15.31,-15.68 -31.19,-16.98 -0.46,104.7 -0.03,209.51 -0.03,314.22 0,49.95 -2.72,107.81 0.04,156.77 1.97,34.9 44.05,26.61 90.62,26.61 11.21,0 32.56,2.28 38.86,-2.76z"/>
   <path class="fil3" d="M93.88 512.03c-11.79,-27.01 -20.77,-44.18 -8.46,-80.22 13.4,-39.21 78.31,-195.94 82.62,-215.51 -6.88,4.98 -19.7,30.82 -24.4,38.69 -17,28.53 -108.93,185.2 -111.56,197.8 -4.18,20 4.03,34.85 14.21,45.26 13.38,13.69 25.14,13.48 47.59,13.97z"/>
   <path class="fil5" d="M770.55 850.18c0.76,29.32 -1.7,136.07 0.54,151.87 3.7,26.09 27.82,22.32 53.69,22.34 14.11,0.01 68.03,3.81 75.4,-2.58 27.09,-0.8 19.41,-53.42 19.41,-89.81 0,-18.56 0.01,-37.12 0,-55.67 -0.01,-19.62 -4.84,-38.73 14.51,-41.37 40.03,-5.47 64.91,8.87 84.22,-24.84 17.19,-30 -5.98,-59.42 -18.37,-80.07 -27.35,-45.6 -54.4,-93.22 -80.73,-139.9 -8.94,-15.84 -31.66,-59.31 -42.89,-68.43 -29.68,-24.1 -70.09,-3.36 -73.33,16.41 -6.03,4.51 -2.97,2 -6.91,8.57l-90.53 156.8c-16.05,28.33 -43.18,64.45 -39.33,90.11 7.43,49.48 62.32,40.94 91.95,41.31 8.23,2.68 10.78,6.37 12.38,15.26z"/>
   <path class="fil6" d="M522.14 558.35c-18.43,7.33 -12.6,33.68 -12.6,68.48 0,19.57 -4.87,62.17 24.47,51.6 17.51,-6.31 12.15,-40.75 12.15,-68.09 0,-9.55 1.09,-30.28 -0.58,-38.54 -1.95,-9.63 -11.59,-18.16 -23.43,-13.45z"/>
   <path class="fil6" d="M481.35 679.3l-3.43 -36.23c-17.91,-0.06 -36.57,0.01 -55.22,-0.07 -18.01,-0.07 -38.15,-0.92 -35.89,20.84 1.99,19.17 21.17,15.81 40.02,15.79 17.39,-0.02 37.48,0.94 54.53,-0.34z"/>
  </g>
 </g>
</svg>
