<?xml version="1.0" encoding="UTF-8"?>
<!DOCTYPE svg PUBLIC "-//W3C//DTD SVG 1.1//EN" "http://www.w3.org/Graphics/SVG/1.1/DTD/svg11.dtd">
<!-- Creator: CorelDRAW 2020 (64-Bit) -->
<svg xmlns="http://www.w3.org/2000/svg" xml:space="preserve" width="133.335mm" height="132.73mm" version="1.1" style="shape-rendering:geometricPrecision; text-rendering:geometricPrecision; image-rendering:optimizeQuality; fill-rule:evenodd; clip-rule:evenodd"
viewBox="0 0 18590.73 18506.28"
 xmlns:xlink="http://www.w3.org/1999/xlink"
 xmlns:xodm="http://www.corel.com/coreldraw/odm/2003">
 <defs>
  <style type="text/css">
   <![CDATA[
    .fil0 {fill:#313131}
    .fil3 {fill:#5F266D}
    .fil4 {fill:#8AB226}
    .fil1 {fill:#E6E6E6}
    .fil5 {fill:#FE4973}
    .fil2 {fill:#FED9A9}
   ]]>
  </style>
 </defs>
 <g id="Слой_x0020_1">
  <metadata id="CorelCorpID_0Corel-Layer"/>
  <g id="_2791989052848">
   <path class="fil0" d="M10166.98 14966.77l292.83 -571.14 4510.61 2337.63 -284.77 572.34 -289.34 581.21c-376.02,-80.02 -4094.99,-2178.45 -4522.38,-2313.11 31.86,-156.76 217.95,-519.12 293.05,-606.92zm-6261.89 2338.8l-297.76 -564.02 4500.87 -2350.62 315.44 575.88c75.01,87.05 261.15,449.18 292.94,606.88 -259.91,86.98 -848.67,421.24 -1121.46,569.12 -445.04,241.22 -3160.03,1693.44 -3410.54,1748.79l-279.48 -586.03zm1222.2 -8537.12c602.53,-140.38 553.13,-51.02 1259.2,68.67 1686.54,285.9 4071.57,295.42 5754.65,10.67l879.69 -153.11c161.01,0 288.25,60.92 442.63,73.77 -208.77,311.75 -2103.01,4009.34 -2266.03,4410.3 -67.41,165.81 -200.99,559.04 -205.32,753.71 -366.38,-30.49 -711.56,-517.43 -1204.4,455.46 -121.26,239.38 -397.96,662.45 -455.46,909.31l-73.77 0c-34.54,-148.2 -571.96,-1184.51 -689.39,-1302.44 -64.78,-65.06 -112.69,-102.13 -194.66,-137.32 -429.49,-184.46 -495.28,51.64 -775.82,75 -4.09,-183.38 -131.9,-573.13 -194.63,-727.52 -104.47,-257.15 -177.9,-422.93 -297.18,-661.85 -117.09,-234.53 -215.53,-393.4 -331.99,-627.04l-1474.97 -2840.66c-64,-128.08 -112.21,-192.86 -172.57,-306.94zm-1166.28 -973.11c-260.31,-2229.03 -218.44,-4881.62 116.12,-7088.02 129.75,7.31 355.47,189.87 473.29,264.41 689.4,436.12 1138.24,294.56 1873.76,172 1795.04,-299.09 3948.33,-288.73 5742.48,0.98 454.45,73.38 874.9,197.81 1339.65,69.7 521.1,-143.63 828.48,-489.16 1005.01,-504.52 318.64,2318.41 363.18,4732.64 115.61,7082.66 -512.23,106.82 -591.66,172.21 -859.37,453.62 -438.54,-99.05 -546,-200.36 -1079.5,-103.96 -1896.94,342.74 -3816.83,419.05 -5731.83,168.75 -1224.26,-160.02 -1098.99,-328.69 -2131.02,-66.6 -313.45,-302.84 -302.09,-320.92 -864.22,-449.01zm7567.47 6492.38c68.91,-733.41 485.24,-1466.3 782.86,-2023.37l1429.68 -2738.52c103.26,-213.21 342.07,-712.85 469.78,-895.37 209.7,-299.7 697.5,-299.07 903.31,-1.07 241.5,349.69 -42.8,730.14 -192.03,1006.87l-949.24 1817.22c-41.15,83.56 -211.26,390.78 -229.67,472.76 -42.09,187.6 100.51,344.12 275.02,354.44 246.31,14.56 273.99,-156.1 370.2,-337.11 81.13,-152.66 149.29,-288.73 225.23,-440.13 159.51,-317.95 318.38,-617.36 481.26,-920.44 107.96,-200.87 129.03,-306.85 284.38,-415.62 380.57,-266.45 762.64,-579.24 1006.21,-1021.13 202.1,-366.64 195.27,-688.22 209.07,-1152.4 26.77,-899.7 55.6,-1794.25 82.83,-2692.67 13.36,-440.57 8.09,-928.69 41.73,-1362.16 28.04,-361.15 344.99,-645.47 748.41,-578.86 471.95,77.91 528.2,481.38 521.77,871.11 -20.19,1222.74 25.78,2782.93 -163.26,3920.28 -382.95,2304 -1342.83,3967.99 -2439.07,5822.44 -363.34,614.63 -693.22,1000.51 -885.58,1837.85 -297.4,-93.11 -2629.13,-1418.12 -2972.9,-1524.1zm-7439.49 1524.24c-183.07,-795.12 -547.33,-1288.68 -899.65,-1860.35 -351.62,-570.54 -681.3,-1139.31 -1005.44,-1759.85 -1685.7,-3227.07 -1529.81,-4670.46 -1583.96,-8034.94 -6.82,-423.08 147.86,-755.41 554.77,-801.03 428.04,-47.99 703.67,252.18 720.19,653.17l121.4 3984.9c27.79,933.93 117.64,1264.81 856.88,1904.99 121.97,105.62 253.73,161.95 405.09,296.28 130.3,115.67 636.8,1140.8 731.3,1333.03 226.65,461.02 329.48,824.37 648.66,742.34 433.11,-111.31 70.02,-641.84 -44.94,-866.53 -308.79,-603.58 -621.78,-1205.08 -937.54,-1791.61 -155.76,-289.31 -440.79,-684.01 -146.62,-1023.5 258.29,-298.1 715.5,-226.39 899.02,87.14 320.16,546.96 636.95,1223.3 934.18,1796.35 499.84,963.71 1630.77,2872.75 1712.95,3802.15l-2966.29 1537.45zm-879.76 -11617.34c0,726.98 -20.4,1679.44 38.82,2395.63 36.53,441.79 108.73,896.37 108.73,1366.72 -567.04,300.02 -481.11,778.32 -627.06,885.26 -27.48,-117.97 -83.99,-209.46 -102.49,-340.14 -21.6,-152.42 -5.76,-292.41 -29.49,-450.03 -45.3,-300.82 -10.26,-634.58 -14.1,-944.93l-110.19 -2693.13c-40.67,-491.55 108.11,-936.2 -474.98,-1406.19 -740.28,-596.7 -1998.3,-75.08 -1998.3,928.61l-0.11 1623.08c-2.36,636.94 78.47,2087.34 163.2,2640.12 226.58,1478.19 803.37,2928.29 1447.04,4196.48 61.77,121.69 104.24,172.47 160.83,281.78 59.88,115.66 96.94,191.42 168.4,311.12l1386.28 2376.07c118.68,298.11 205.1,722.21 215.39,743.64 -363.32,97.01 -516.4,367.77 -516.4,737.71 0,147.08 364.47,811.82 449.75,951.9 120.97,198.69 276.72,707.96 730.59,707.96 274.17,0 1056.38,-472.88 1340.18,-614.77l3196.77 -1672.15c201.92,-99.86 493.83,-208.39 516.4,-479.52l73.77 0c21.81,262.11 286.32,365.48 491.74,467.29 235.54,116.73 396.85,217.79 627.05,331.96l1290.59 664.36c248.01,138.81 2391.6,1302.82 2607.08,1302.82 184.38,0 393.94,-111.49 485.99,-214.84 89.3,-100.26 731.23,-1292.23 731.23,-1445.02 0,-222.29 -3.15,-350.05 -154.5,-509.44 -78.02,-82.17 -245.81,-197.28 -361.9,-228.27 157.68,-328.62 -141.73,-318.44 900.23,-1903.08 134.09,-203.93 233.78,-400.35 356,-603.03 1315.76,-2182.01 2249.48,-4497.4 2247.9,-7157.95 -0.21,-361.37 38.27,-578.22 37,-922.04l-0.11 -1586.19c0,-1288.83 -1934.99,-1662.33 -2393.61,-401.78 -115.1,316.36 -56.97,463.04 -77.56,844.59l-112.3 2727.9c-3.39,273.4 26.53,656.51 -8.62,913.53 -17.92,131.08 -13.83,283.64 -30.8,448.71 -16.15,157.21 -76.3,242.48 -106.66,372.86 -117.11,-85.8 -58.77,-104.25 -105.69,-263.18 -73.07,-247.57 -294.53,-502.05 -521.36,-622.07l100.57 -1337.97c92.22,-673.45 31.34,-3132.76 11.24,-3864.09l-227.57 -2059.34c-67.11,-403.28 -94.41,-669.05 -585.07,-669.05 -196.68,0 -674.79,379.11 -982.73,529.58 -427.57,208.93 -822.95,73.55 -1277.73,-2.75 -1386.92,-232.66 -3475.92,-324.2 -4943.19,-132.02 -582.77,76.34 -1464.97,232.26 -1944.01,232.26 -333.51,0 -877.34,-440.29 -1150,-583.86 -241.55,-127.19 -460.39,-74.94 -612.37,112.48 -115.27,142.15 -154.9,498.87 -182.09,703.16 -138.35,1039.56 -231.79,2153.85 -231.79,3309.25z"/>
   <g>
    <path class="fil1" d="M13063.32 5670.04c-68.32,-394.18 509.23,-483.45 571.34,-133.91 71.21,400.83 -511.39,479.69 -571.34,133.91zm-3767.95 -2584.08c0,0 0,0 0,0l0 0zm3993.02 -929.34c475.6,-121.39 405.49,772.13 426.8,1151.26 15.92,282.97 21.96,566.48 20.94,849.87 -1.02,283.11 29.48,557.66 -211.79,619.98 -538.07,139.01 -372.4,-835.18 -389,-1247.41 -32.39,-803.36 -223.88,-1277.51 153.05,-1373.7zm-9327.37 5638.71c562.13,128.09 550.77,146.18 864.22,449.01 1032.03,-262.08 906.76,-93.42 2131.02,66.6 1914.99,250.3 3834.89,173.99 5731.83,-168.75 533.49,-96.4 640.95,4.91 1079.5,103.96 267.7,-281.41 347.13,-346.8 859.37,-453.62 247.57,-2350.02 203.02,-4764.25 -115.61,-7082.66 -176.53,15.36 -483.91,360.9 -1005.01,504.52 -464.76,128.11 -885.2,3.68 -1339.65,-69.7 -1794.15,-289.7 -3947.44,-300.06 -5742.48,-0.98 -735.53,122.56 -1184.36,264.12 -1873.76,-172 -117.82,-74.54 -343.54,-257.11 -473.29,-264.41 -334.56,2206.4 -376.43,4858.99 -116.12,7088.02z"/>
   </g>
   <path class="fil2" d="M4089 15811.96l2966.29 -1537.45c-82.18,-929.4 -1213.11,-2838.44 -1712.95,-3802.15 -297.23,-573.05 -614.03,-1249.39 -934.18,-1796.35 -183.52,-313.53 -640.73,-385.24 -899.02,-87.14 -294.17,339.49 -9.13,734.19 146.62,1023.5 315.76,586.53 628.75,1188.03 937.54,1791.61 114.96,224.69 478.04,755.23 44.94,866.53 -319.18,82.03 -422.01,-281.32 -648.66,-742.34 -94.5,-192.23 -601.01,-1217.36 -731.3,-1333.03 -151.36,-134.34 -283.12,-190.67 -405.09,-296.28 -739.25,-640.18 -829.1,-971.06 -856.88,-1904.99l-121.4 -3984.9c-16.52,-400.98 -292.14,-701.16 -720.19,-653.17 -406.91,45.62 -561.59,377.95 -554.77,801.03 54.15,3364.49 -101.74,4807.88 1583.96,8034.94 324.14,620.54 653.82,1189.31 1005.44,1759.85 352.32,571.67 716.58,1065.23 899.65,1860.35z"/>
   <path class="fil2" d="M11528.48 14287.71c343.77,105.98 2675.5,1430.99 2972.9,1524.1 192.36,-837.34 522.24,-1223.22 885.58,-1837.85 1096.24,-1854.45 2056.12,-3518.44 2439.07,-5822.44 189.04,-1137.34 143.07,-2697.53 163.26,-3920.28 6.43,-389.73 -49.82,-793.19 -521.77,-871.11 -403.42,-66.6 -720.37,217.72 -748.41,578.86 -33.64,433.47 -28.37,921.59 -41.73,1362.16 -27.23,898.42 -56.06,1792.96 -82.83,2692.67 -13.8,464.18 -6.97,785.76 -209.07,1152.4 -243.57,441.89 -625.64,754.68 -1006.21,1021.13 -155.35,108.77 -176.42,214.75 -284.38,415.62 -162.88,303.08 -321.76,602.48 -481.26,920.44 -75.95,151.41 -144.1,287.47 -225.23,440.13 -96.21,181.01 -123.88,351.67 -370.2,337.11 -174.51,-10.32 -317.12,-166.84 -275.02,-354.44 18.4,-81.98 188.52,-389.2 229.67,-472.76l949.24 -1817.22c149.23,-276.72 433.54,-657.18 192.03,-1006.87 -205.81,-298 -693.61,-298.63 -903.31,1.07 -127.7,182.51 -366.52,682.15 -469.78,895.37l-1429.68 2738.52c-297.62,557.07 -713.96,1289.96 -782.86,2023.37z"/>
   <path class="fil3" d="M8399.94 3313.69c670.58,65.82 508.9,511.94 838.47,565.3 420.21,68.04 257.02,-423.21 818.19,-545.79 624.79,-136.47 976.74,499.99 676.13,934.77l-857.93 1022.54c-137.56,157.89 -263.66,359.56 -427.12,514.07l-138.24 185.65c-117.41,-87.91 -479.51,-557 -580.34,-677.22l-834.44 -971.09c-85.62,-114.61 -164.79,-275.02 -148.21,-476.45 28.57,-346.97 288.77,-557.14 653.5,-551.77zm895.44 -227.73c0,0 0,0 0,0z"/>
   <path class="fil4" d="M8423.64 14966.81l-315.44 -575.88 -4500.87 2350.62 297.76 564.02 279.48 586.03c250.51,-55.35 2965.5,-1507.57 3410.54,-1748.79 272.79,-147.88 861.55,-482.14 1121.46,-569.12 -31.79,-157.69 -217.93,-519.83 -292.94,-606.88z"/>
   <path class="fil4" d="M14685.66 17305.6l284.77 -572.34 -4510.61 -2337.63 -292.83 571.14c-75.1,87.8 -261.19,450.16 -293.05,606.92 427.39,134.66 4146.36,2233.1 4522.38,2313.11l289.34 -581.21z"/>
   <path class="fil0" d="M13288.39 2156.62c-376.93,96.19 -185.44,570.35 -153.05,1373.7 16.61,412.23 -149.06,1386.42 389,1247.41 241.27,-62.32 210.77,-336.87 211.79,-619.98 1.02,-283.39 -5.02,-566.9 -20.94,-849.87 -21.32,-379.13 48.8,-1272.65 -426.8,-1151.26z"/>
   <path class="fil5" d="M8399.94 3313.69c-364.73,-5.37 -624.93,204.81 -653.5,551.77 -16.58,201.43 62.59,361.84 148.21,476.45l834.44 971.09c100.83,120.22 462.93,589.31 580.34,677.22l138.24 -185.65c163.47,-154.51 289.56,-356.18 427.12,-514.07l857.93 -1022.54c300.61,-434.78 -51.34,-1071.24 -676.13,-934.77 -561.17,122.59 -397.98,613.83 -818.19,545.79 -329.57,-53.36 -167.89,-499.47 -838.47,-565.3z"/>
   <path class="fil0" d="M13063.32 5670.04c59.94,345.78 642.54,266.92 571.34,-133.91 -62.1,-349.55 -639.65,-260.27 -571.34,133.91z"/>
  </g>
 </g>
</svg>
