<?xml version="1.0" encoding="UTF-8"?>
<!DOCTYPE svg PUBLIC "-//W3C//DTD SVG 1.1//EN" "http://www.w3.org/Graphics/SVG/1.1/DTD/svg11.dtd">
<!-- Creator: CorelDRAW 2020 (64-Bit) -->
<svg xmlns="http://www.w3.org/2000/svg" xml:space="preserve" width="135.485mm" height="128.564mm" version="1.1" style="shape-rendering:geometricPrecision; text-rendering:geometricPrecision; image-rendering:optimizeQuality; fill-rule:evenodd; clip-rule:evenodd"
viewBox="0 0 3428.19 3253.07"
 xmlns:xlink="http://www.w3.org/1999/xlink"
 xmlns:xodm="http://www.corel.com/coreldraw/odm/2003">
 <defs>
  <style type="text/css">
   <![CDATA[
    .fil0 {fill:black}
    .fil6 {fill:#5290DB}
    .fil8 {fill:#6FD6F9}
    .fil4 {fill:#86D147}
    .fil3 {fill:#8AB226}
    .fil5 {fill:#DAE6F1}
    .fil1 {fill:#F3C64B}
    .fil7 {fill:#FC657E}
    .fil2 {fill:#FED9A9}
   ]]>
  </style>
 </defs>
 <g id="Слой_x0020_1">
  <metadata id="CorelCorpID_0Corel-Layer"/>
  <g id="_2791989192976">
   <path class="fil0" d="M1124.88 650.05c0,192.55 50.79,323 182.56,453.53 65.81,65.2 58.94,105.95 58.47,229.45 -0.25,65.01 -0.82,79.24 22.09,125.21 14.64,29.36 40.07,67.2 71.67,75.64 0,66.96 0.34,134.01 -0.09,200.96 -0.38,59.49 8.79,109.58 52.82,148.05 33.12,28.94 27.73,8.64 35.35,65.09 23.47,173.86 304.1,181.8 332.67,-0.05 14.77,-94.02 34.9,-27.28 75.72,-125.15 20.45,-49.02 12.4,-221.3 12.4,-288.91 65.38,-17.46 94.76,-119.37 100.1,-187.81 9.56,-122.39 -20.99,-164.9 48.76,-239.16 58.58,-62.37 80.54,-78.08 123.44,-164.47 96.07,-193.44 85,-434 -43.58,-608.16l-45.88 -54.55c-87.12,-104.19 -253.51,-192.11 -390.41,-192.11 -139.48,0 -169.69,-1.42 -300.47,54.4 -60.77,25.94 -117.68,72.54 -163.21,118.01 -55.38,55.3 -79.57,90.6 -116.7,164.52 -27.04,53.82 -55.71,147.67 -55.71,225.51z"/>
   <path class="fil0" d="M1827.94 3204.03l1.53 -310c41.18,-11.32 272.41,-2.32 333.24,-1.94l313.44 2.61c13.38,2.71 7.66,1.05 14.9,5.77 15.21,31.05 5.12,252.34 5.12,307.33 -0.55,14.74 -5.12,44.89 2.32,44.79 18.91,-0.27 21.87,0.12 57.59,-1.27 8.18,-64.4 8.37,-175.65 8.37,-251.08 0,-30.4 4.67,-91.94 -2.69,-117.83 -8.2,-28.84 -35.97,-49.66 -64.27,-56.25 0,-83.79 10.07,-151.01 -60.26,-167.39 7.25,-87.1 79.16,-170.59 166.45,-201.81 225.85,-80.77 350.52,-9.91 562.12,-361.89l246.93 -402.55c8.58,-16.58 13.54,-32.94 15.46,-48.71l0 -30.27c-11.88,-95.36 -134.71,-155.26 -218.1,-76.79l-205.71 262.99c-16.35,19.53 -31.08,28.22 -44.9,48.85 -181.76,-121.71 -297.87,58.61 -327.88,73.86 -26,13.21 -118.3,-1.29 -214.56,26.49 -188.48,54.38 -388.34,304.42 -456.17,508.01 -31.63,94.95 -26.2,110.44 -45.93,195.12 -90.5,0 -87.05,78.12 -87.05,167.39 -89.18,42.79 -66.96,62.59 -66.96,227.65 0,94.59 -8.07,197.36 37.58,203.04 8.59,1.07 522.42,4.64 646.67,1.93 45.21,-0.98 48.61,0.46 48.77,-2.2 0.29,-4.87 0.41,-40.02 2.18,-42.07 5.12,-5.92 -669.19,7.9 -668.23,-3.78z"/>
   <path class="fil0" d="M932.29 3207.8c-0.55,-40.54 -16.06,-302.49 8.62,-310.32 1.3,-0.41 3.59,-1.55 5.24,-1.99 1.7,-0.45 3.59,-1.17 5.54,-1.57 2.04,-0.43 3.71,-0.74 5.93,-1.06l147.17 -0.63c78.74,-0.43 471.11,-13.26 487.44,1.47 16.21,14.63 8.05,295.14 8.06,314.1 1.28,15.12 5.86,36.71 16.96,36.34 18.79,-0.62 18.48,-0.35 31.56,-0.7 13.46,-0.36 18.77,-25.02 19.04,-48.41l-0.24 -295.6c-2.45,-56.43 -39.49,-66.62 -67.33,-79.97 0,-98.91 0.42,-166.25 -93.74,-174.09 0,-110.43 -75.49,-283.81 -119.18,-356.21 -77.54,-128.52 -227.28,-292.8 -376.91,-339.53 -41.63,-13 -56.24,-9.91 -105.45,-15.07 -184.74,-19.37 -80.51,4.85 -170.31,-70.74 -18.92,-15.93 -51.91,-34.84 -77.48,-43.04 -78.5,-25.18 -129.37,-3.49 -188.5,27.8l-85.48 -95.3c-128.92,-144.73 -169.16,-285.18 -295.03,-245.12 -50.5,16.07 -80.88,57.81 -88.19,103.24l0 42.99c1.73,10.62 4.75,21.07 9.12,31.07l246.62 402.86c75.1,116.18 124.87,217.05 275.33,287.11 42.94,20 84.23,34.09 136.7,44.09 153.61,29.27 279.98,53.77 323.19,239.25 -70.32,16.38 -60.26,83.6 -60.26,167.39 -91.49,21.32 -66.96,120.34 -66.96,220.96 0,47.99 -2.08,100.36 -0.43,147.73 0.91,25.99 -1.43,47.4 26.26,50.36 13.75,1.47 724.48,2.38 723.43,-0.13 -7.57,-18.18 -12.73,-37.27 -12.73,-37.27 -54.82,0 -629.89,0 -667.99,0z"/>
   <path class="fil1" d="M1679.34 1499.12l1.41 -362.36c-146.07,-19.33 -274.57,-163.56 -222.51,-340.92 18.84,-64.2 68.03,-142.34 101.17,-193.26 20.23,-31.08 40.11,-58.59 61.94,-85.49 106.76,-131.57 176.44,-19.74 244.7,81.32 30.62,45.33 85.22,133.51 103.39,191.26 57.2,181.72 -67.94,326.87 -221.93,347.73l0.14 361.72c106.99,0 186.05,10.57 227.95,-65.28 66.6,-120.57 -57.72,-244.34 117.09,-398.38 49.11,-43.28 109.59,-157.61 128.67,-240 80.45,-347.57 -187.94,-639.26 -507.23,-640.94 -321.2,-1.7 -587.38,295.96 -508.45,642.55 49.82,218.78 182.04,242.1 217.99,371.14 22.61,81.16 -12.19,199.85 28.51,265.86 48.34,78.39 122.59,65.06 227.16,65.06z"/>
   <path class="fil2" d="M1071.31 2652.09l365.22 -3.89c16.31,-74.16 -75.28,-269 -105.63,-322.75 -55.38,-98.09 -124.08,-168.47 -203.52,-231.57 -162.85,-129.36 -214.9,-73.44 -335,-100.72 -77.04,-17.5 -68.42,-61.52 -126.66,-94.07 -60.27,-33.69 -289.55,-42.72 -56.05,136.66 50.44,38.75 141.08,73.32 91.57,112.3 -31.58,24.86 -126.94,-52.3 -148.12,-69.27 -36.79,-29.48 -93.46,-77.46 -109.81,-131.16 -26.54,-87.19 -30.4,-45.47 -101.06,-133.18 -60.25,-74.79 -95.39,-114.02 -150.96,-197.45 -62.08,-93.22 -134.83,-28.32 -122.73,28.4 3.63,17.01 32.24,58.91 43.46,77.83 58.59,98.86 120.19,191.07 178.46,290.18 238.03,404.88 310.22,275.99 562.47,381.71 63.79,26.74 105.66,54.95 136.86,97.3 17.44,23.67 31.36,45.03 44.24,76.24 5.81,14.09 11.2,30.47 15.45,44.91 7.36,24.97 2.18,28.82 21.8,38.52z"/>
   <path class="fil2" d="M2722.81 2151.14c-26.6,-61.16 9.62,-49.71 95.28,-115.78 49.52,-38.19 156.44,-113.59 71.67,-144.12 -136.51,-49.16 -166.8,83.18 -251.91,104.69 -135.38,34.21 -156.36,-36.39 -334.49,100.31 -86.92,66.7 -140.55,126.66 -205.08,230.32 -40.12,64.46 -114.82,230.09 -110.15,323.48l368.75 2.76c21.69,-6.09 20.31,-72.15 64.88,-136.68 170.14,-246.33 423.43,-45.55 646.64,-391.29l234.48 -381.52c21.61,-34.66 73.18,-93.82 50.15,-140.74 -9.78,-19.93 -36.08,-37.25 -70.12,-27.64 -31.45,8.87 -103.57,126.23 -142.8,173.06 -16.32,19.48 -27.79,33.23 -45.93,54.39l-51.8 55.33c-10.41,10.7 -42.75,42.3 -47.87,53.37 -25.3,54.62 -8.71,87.65 -135.07,178.92 -33.72,24.35 -87.05,72.66 -136.66,61.15z"/>
   <path class="fil3" d="M932.29 3207.8l667.99 0c-0.01,-18.96 8.16,-299.47 -8.06,-314.1 -16.33,-14.73 -408.69,-1.9 -487.44,-1.47l-147.17 0.63c-2.22,0.32 -3.89,0.63 -5.93,1.06 -1.96,0.41 -3.85,1.12 -5.54,1.57 -1.65,0.44 -3.94,1.58 -5.24,1.99 -24.68,7.82 -9.17,269.78 -8.62,310.32z"/>
   <path class="fil3" d="M1827.92 3207.8l668.25 0c0,-54.99 10.09,-276.28 -5.12,-307.33 -7.25,-4.72 -1.52,-3.05 -14.9,-5.77l-313.44 -2.61c-60.82,-0.38 -292.06,-9.38 -333.24,1.94l-1.55 313.77z"/>
   <path class="fil4" d="M1680.63 1068.65c0,-50.26 0.04,-100.52 -0,-150.77 -0.03,-35.7 -15,-112.99 33.45,-112.91 48.41,0.07 33.52,77.18 33.49,112.91 -0.05,50.33 -0,100.66 -0,150.99 112.63,-21.18 211.64,-137.88 151.4,-275.5 -23.99,-54.8 -147.09,-265.37 -185.39,-267.84 -42.88,-2.76 -165.71,216.97 -184.81,267.32 -52.73,139.03 32.85,253.87 151.87,275.81z"/>
   <path class="fil5" d="M1001.69 2752.5l0.49 73.21 525.76 -5.39 -2.3 -99.54c-49.54,-8.8 -376.82,2.24 -481.76,0.71 -37.13,-0.54 -42.2,-4.91 -42.2,31z"/>
   <path class="fil5" d="M1898.36 2815.78c46.66,13.65 446.03,8.46 526.81,8.65l-1.75 -84.41c-0.46,-1.95 -1.23,-3.82 -1.73,-5.51l-521.48 -17.14 -1.84 98.42z"/>
   <polygon class="fil5" points="1526.62,1674.49 1901.58,1674.49 1901.58,1565.58 1854.72,1567.74 1566.79,1567.36 1526.6,1565.77 "/>
   <path class="fil5" d="M1653.84 1861.97l120.52 0c82,0 125.3,-39.01 127.22,-120.52l-374.96 0c1.79,81.85 44.62,120.52 127.22,120.52z"/>
   <path class="fil4" d="M508.87 1286.14l0 26.78c-121.52,0 -66.43,87.04 -40.17,87.04l40.17 0c0,120.24 87.05,68.21 87.05,40.18l0 -40.18c30.14,0 73.65,7.43 73.65,-40.17 0,-51.65 -38.84,-46.87 -73.65,-46.87 0,-116.77 -87.05,-77.9 -87.05,-26.78z"/>
   <path class="fil0" d="M689.66 978.14c0,36.33 4.18,23.12 20.09,46.87 36.73,-3.06 198.92,-81.49 256.42,-105.14 29.53,-12.15 61.78,-25.81 43.7,-60.73 -22.98,-44.39 -82.61,1.24 -163.38,34.79 -26.88,11.17 -156.83,58.67 -156.83,84.21z"/>
   <path class="fil0" d="M2417.14 442.48c0,36.33 4.18,23.12 20.09,46.87 36.73,-3.06 198.92,-81.49 256.42,-105.14 29.53,-12.15 61.78,-25.81 43.7,-60.73 -19.57,-37.81 -52.33,-13.87 -79.37,-1.73l-167.38 73.68c-19.81,8.67 -73.46,22.08 -73.46,47.06z"/>
   <path class="fil0" d="M689.66 335.35c0,42.18 24.07,38.84 73.46,60.45 26.71,11.69 199.27,91.4 214.67,90.9 29.26,-0.94 33.26,-22.61 33.26,-44.22 0,-24.39 -103.11,-60.39 -142.9,-78.06 -35.3,-15.69 -123.86,-59.67 -158.41,-62.55 -9.24,13.8 -20.09,17.38 -20.09,33.48z"/>
   <path class="fil0" d="M2417.14 871.01c0,42.18 24.07,38.84 73.46,60.45 26.71,11.69 199.27,91.4 214.67,90.9 29.26,-0.94 33.26,-22.61 33.26,-44.22 0,-24.39 -103.11,-60.39 -142.89,-78.06 -35.3,-15.69 -123.86,-59.67 -158.41,-62.55 -9.24,13.8 -20.09,17.38 -20.09,33.48z"/>
   <path class="fil0" d="M2457.32 656.75c0,15.37 -1.06,40.18 26.78,40.18l294.61 0c36.84,0 36.84,-66.96 0,-66.96l-294.61 0c-15.67,0 -26.78,11.11 -26.78,26.78z"/>
   <path class="fil0" d="M622.7 656.75c0,15.37 -1.07,40.18 26.78,40.18l294.61 0c36.84,0 36.84,-66.96 0,-66.96l-294.61 0c-15.67,0 -26.78,11.11 -26.78,26.78z"/>
   <path class="fil1" d="M2731.84 1353.1l0 13.39c55.98,4.66 109.17,57.85 113.83,113.83l13.39 0c3.01,-36.15 20.45,-58.93 41.58,-78.94 45.75,-43.35 58.28,-20.07 78.94,-48.28 -58.67,-4.88 -115.7,-55.92 -120.52,-113.83l-13.39 0c-5.09,61.18 -58.62,100.96 -113.83,113.83z"/>
   <path class="fil6" d="M1813.43 1929.9l-25.67 -1.17 -147.31 0.19 -25.87 0.61c20.53,111.97 177.1,113.38 198.86,0.36z"/>
   <path class="fil1" d="M381.65 2772.58c25.8,35.21 63.11,13.05 80.35,87.05 21.1,-15.46 16.92,-29.61 37.04,-50 23.35,-23.66 41.64,-16.48 56.7,-37.04 -25.45,-2.12 -44.82,-12.91 -58.65,-28.4 -7.24,-8.11 -10.67,-14.88 -15.91,-24.27 -14.15,-25.37 3.97,-10.71 -19.19,-27.68 -10.03,43.03 -34.05,69.56 -80.35,80.35z"/>
   <path class="fil7" d="M2263.14 1882.06c56.75,0 75.28,-93.74 -6.7,-93.74 -48.04,0 -53.68,93.74 6.7,93.74z"/>
   <path class="fil8" d="M937.4 47.44c0,61.67 93.74,59.16 93.74,0 0,-55.63 -93.74,-70.44 -93.74,0z"/>
  </g>
 </g>
</svg>
