<?xml version="1.0" encoding="UTF-8"?>
<!DOCTYPE svg PUBLIC "-//W3C//DTD SVG 1.1//EN" "http://www.w3.org/Graphics/SVG/1.1/DTD/svg11.dtd">
<!-- Creator: CorelDRAW 2020 (64-Bit) -->
<svg xmlns="http://www.w3.org/2000/svg" xml:space="preserve" width="126.984mm" height="127.03mm" version="1.1" style="shape-rendering:geometricPrecision; text-rendering:geometricPrecision; image-rendering:optimizeQuality; fill-rule:evenodd; clip-rule:evenodd"
viewBox="0 0 1754.86 1755.51"
 xmlns:xlink="http://www.w3.org/1999/xlink"
 xmlns:xodm="http://www.corel.com/coreldraw/odm/2003">
 <defs>
  <style type="text/css">
   <![CDATA[
    .fil0 {fill:black}
    .fil2 {fill:#8AB226}
    .fil3 {fill:#FED9A9}
    .fil1 {fill:#FED9A9}
    .fil4 {fill:#FF9811}
   ]]>
  </style>
 </defs>
 <g id="Слой_x0020_1">
  <metadata id="CorelCorpID_0Corel-Layer"/>
  <g id="_2791991534848">
   <path class="fil0" d="M467.96 501.51c0,235.68 76.87,289.85 80.43,332.69 -18.83,5.03 -30.76,30.61 -43.87,40.22 -15.31,-65.71 -129.43,-74.14 -166.16,-19.93 -20.1,29.66 -16.65,40.13 -16.64,85.73 0.02,67.03 0,134.05 0,201.08l-67.02 -119.43c-6.57,-12.32 -20.72,-29.75 -20.72,-45.09l0 -201.08c0,-25.02 127.96,-421.94 127.96,-449.68 0,-45.69 -35.96,-91.4 -80.43,-91.4 -81.58,0 -101.63,2.31 -133.9,100.08l-74.03 211.14c-8.3,22.95 -15.78,46.8 -24.98,70.07 -9.47,23.92 -15.73,45.7 -25.12,69.94 -4.26,11 -23.48,64.23 -23.48,71.58l0 442.37c0,18.64 63.38,199.24 77.24,240.83 5.9,17.7 23.63,62.94 25.13,80.9 -90.87,0 -73.12,-18.05 -73.12,204.73 0,17.68 11.56,29.25 29.25,29.25l643.45 0c17.68,0 29.25,-11.56 29.25,-29.25l0 -175.49c0,-38.23 -43.81,-29.25 -87.74,-29.25l0 -175.49c0,-13.21 -27.72,-106.18 -32.9,-116.99l533.77 0c-5.19,10.81 -32.9,103.78 -32.9,116.99l0 175.49c-108.65,0 -87.74,-24.06 -87.74,204.73 0,17.68 11.56,29.25 29.25,29.25l643.45 0c17.68,0 29.25,-11.56 29.25,-29.25 0,-222.78 17.75,-204.73 -73.12,-204.73 1.49,-17.96 19.23,-63.2 25.13,-80.9 9.09,-27.28 17.43,-52.22 26.52,-79.5 8.39,-25.18 50.72,-141.12 50.72,-161.33l0 -442.37 -147.61 -422.72c-34.14,-103.46 -57.14,-100.08 -133.9,-100.08 -44.47,0 -80.43,45.71 -80.43,91.4 0,15.95 24.63,91.62 30.52,112.06l82.39 279.56c4.26,14.65 15.06,43.55 15.06,58.06l0 201.08c0,13.7 -67.47,132 -81.69,155.94l-6.05 8.57c0,-67.03 -0.02,-134.05 0,-201.08 0.01,-44.2 3.5,-54.73 -15.19,-83.52 -38.13,-58.72 -152.72,-46.19 -167.61,17.71 -0.01,-0.01 -43.87,-43.87 -43.87,-43.87l28.23 -59.51c10,-23.4 16.84,-40.31 25.27,-66.13 72.2,-221.2 3.96,-513.35 -197.53,-647.99 -113.62,-75.92 -256.48,-75.87 -370.03,0 -134.45,89.84 -224.45,268.19 -224.45,444.59z"/>
   <path class="fil1" d="M380.3 953.11c-0.32,59.07 3.15,255 -0.09,301.7 -2.42,34.84 -36.04,41.87 -54.31,17.59l-145.09 -260.78c-10.64,-22.65 -5.3,-159.52 -5.3,-195.7 -0,-87.84 9.04,-84.16 33.18,-171.56l91.98 -313.71c6.8,-35.8 -23.04,-40.82 -55.67,-37.34 -29.02,3.1 -31.34,32.09 -41.17,61.05l-132.53 375.66c-14.38,41.91 -12.83,41.72 -12.82,89.55 0.01,73.13 -8.76,351.15 7.46,398.35 20.75,60.4 87.96,254.58 100.74,303.61l330.65 -0 87.64 -0c0,-78.76 6.94,-150.31 -13.48,-216.94 -18.25,-59.54 -34.16,-118.88 -52.3,-177.94 -18.19,-59.2 -34.04,-118.33 -52.31,-177.93 -9.39,-30.63 -11.59,-67.27 -43,-70.61 -50.66,-5.38 -43.92,34.65 -43.57,74.98z"/>
   <path class="fil2" d="M1125.27 935.88c-5.66,5.12 -47.78,55.46 -68.33,14.86 -9.37,-18.51 12.66,-64.55 15.32,-90.16 -35.94,13.07 -172.25,104.53 -194.84,104.54 -24.16,0 -157.87,-91.79 -194.83,-104.85 3.47,24.16 12.66,42.4 17.01,64.12 4.94,24.64 -11.18,46.2 -35.46,39.01 -23.11,-6.84 -61.7,-62.91 -80.85,-83.52 -16.21,16.2 -29.44,24.56 -42.63,52.54 -15.41,32.7 -3.55,48.33 6.68,82.07 14.46,47.71 35.14,108.45 45.25,155.71l483.34 0.45 86.34 -0.17c12.26,-50.15 29.56,-103.75 44.37,-153.18 8.51,-28.39 22.04,-50.75 9.71,-79.68 -10.43,-24.48 -28.47,-47.38 -48.31,-57.17 -11.89,24.1 -34.39,42.54 -42.79,55.42z"/>
   <path class="fil1" d="M1502.06 1521.51l86.1 0.03c17.1,-65.15 78.13,-233.98 103.59,-311.74 12.04,-36.77 4.33,-346.45 4.67,-412.18 0.28,-55.07 -28.29,-112.77 -46.14,-162.27 -18.66,-51.76 -36.63,-101.74 -54.45,-153.93 -17.64,-51.66 -35.95,-102.28 -54.21,-154.17 -8.06,-22.89 -14.95,-45.06 -67.21,-32.88 -31.09,7.24 -20.14,47.68 -10.46,69.09l70.59 241.34c44.23,144.27 44.83,125.47 44.83,269.62 0,168.75 11.73,99.34 -65.28,245.43 -18.18,34.5 -37.88,66.6 -56.09,101.14 -12.38,23.48 -45.6,99.26 -77.63,53.55 -17.55,-25.04 2.37,-353.6 -8.74,-378.89 -7.44,-16.95 -38.08,-25.38 -57.15,-11.96 -15.69,11.05 -33.5,90.32 -41.33,115.88 -24.51,80.05 -46.17,160.22 -70.61,240.07 -46.13,150.71 -32.65,116.46 -32.65,281.9l332.17 -0.03z"/>
   <path class="fil3" d="M728.67 815.92c7.64,8.16 142.98,85.07 148.76,85.07 5.05,0 141.66,-77.49 148.76,-85.07 -9.72,-12.02 -52.09,-40.67 -67.34,-52.18 -33,-24.92 -22.91,-49.46 -22.91,-98.44 -49.94,10.25 -67.07,10.29 -117.02,0 0,48.59 10,73.72 -22.86,98.48 -15.57,11.74 -57.13,39.84 -67.39,52.13z"/>
   <path class="fil4" d="M1140.8 771.51l-0.91 46.09c0.67,-0.69 1.8,-2.81 2.14,-2.16 5.13,9.58 61.51,-116.26 74.6,-179.26 29.43,-141.61 1.75,-295.45 -73.71,-414.78 -27.35,-43.24 -82.49,-106.58 -133.86,-126.03 -11.72,-20.65 -270.52,-130.7 -427.15,180.24 -78.05,154.96 -73.39,382.97 22,528.56l11.1 12.97c-6.37,-227.88 70.12,-264.29 62.29,-308.74 -3.3,-18.74 -4.55,-30.58 -4.62,-50.74 -0.13,-35.33 0.04,-70.7 0.04,-106.03 0,-41.31 -9.61,-70.47 22.23,-87.52 23.42,-12.54 49.26,-24.62 73.25,-36.44 33.7,-16.6 38.1,-27.21 80.71,-15.8 57.41,15.39 114.99,28.74 172.56,43.1 33.28,8.3 59.4,7.24 60.82,45.23 1.71,45.92 0.98,167.99 -5.19,211.13 -4.98,34.83 59.5,87.24 63.71,260.19z"/>
   <polygon class="fil0" points="1286.9,59.14 1228.41,59.14 1228.41,117.63 1286.9,117.63 1286.9,176.13 1345.4,176.13 1345.4,117.63 1403.89,117.63 1403.89,59.14 1345.4,59.14 1345.4,0.64 1286.9,0.64 "/>
   <polygon class="fil0" points="409.47,59.14 350.97,59.14 350.97,117.63 409.47,117.63 409.47,176.13 467.96,176.13 467.96,117.63 526.46,117.63 526.46,59.14 467.96,59.14 467.96,0.64 409.47,0.64 "/>
   <polygon class="fil0" points="58.5,146.88 -0,146.88 -0,205.38 58.5,205.38 58.5,263.87 116.99,263.87 116.99,205.38 175.49,205.38 175.49,146.88 116.99,146.88 116.99,88.38 58.5,88.38 "/>
   <polygon class="fil0" points="1637.87,146.88 1579.38,146.88 1579.38,205.38 1637.87,205.38 1637.87,263.87 1696.37,263.87 1696.37,205.38 1754.86,205.38 1754.86,146.88 1696.37,146.88 1696.37,88.38 1637.87,88.38 "/>
   <polygon class="fil2" points="584.95,1697.01 672.7,1697.01 672.7,1580.02 584.95,1580.02 87.74,1580.02 87.74,1697.01 "/>
   <polygon class="fil2" points="1579.38,1697.01 1667.12,1697.01 1667.12,1580.02 1579.38,1580.02 1082.17,1580.02 1082.17,1697.01 "/>
   <path class="fil1" d="M936.68 601.78c37.71,-13.78 74.42,-56.77 83.82,-103.33 7.17,-35.52 4.5,-142.02 2.77,-182.99l-32.48 -6.86c-36.01,-13.26 -93.85,-23.95 -134.51,-34.37 -62.62,-16.04 -44.52,5.63 -125.1,36.09 0,71.03 -12.19,185.01 23.29,237.38 32.36,47.77 102.05,90.02 182.21,54.07z"/>
   <polygon class="fil0" points="906.7,410.09 965.4,410.09 965.16,351.63 906.45,351.63 "/>
   <polygon class="fil0" points="789.71,410.09 848.18,410.09 848.17,351.63 789.69,351.63 "/>
  </g>
 </g>
</svg>
