<?xml version="1.0" encoding="UTF-8"?>
<!DOCTYPE svg PUBLIC "-//W3C//DTD SVG 1.1//EN" "http://www.w3.org/Graphics/SVG/1.1/DTD/svg11.dtd">
<!-- Creator: CorelDRAW 2020 (64-Bit) -->
<svg xmlns="http://www.w3.org/2000/svg" xml:space="preserve" width="123.307mm" height="135.45mm" version="1.1" style="shape-rendering:geometricPrecision; text-rendering:geometricPrecision; image-rendering:optimizeQuality; fill-rule:evenodd; clip-rule:evenodd"
viewBox="0 0 1140.23 1252.51"
 xmlns:xlink="http://www.w3.org/1999/xlink"
 xmlns:xodm="http://www.corel.com/coreldraw/odm/2003">
 <defs>
  <style type="text/css">
   <![CDATA[
    .fil0 {fill:black}
    .fil5 {fill:#626974}
    .fil4 {fill:#7DA123}
    .fil1 {fill:#8AB226}
    .fil3 {fill:#CBCBCB}
    .fil2 {fill:#DFE5E8}
   ]]>
  </style>
 </defs>
 <g id="Слой_x0020_1">
  <metadata id="CorelCorpID_0Corel-Layer"/>
  <g id="_2791995751408">
   <path class="fil0" d="M1047.13 506.89c2.74,-39.94 9.79,-173.03 -0.3,-204.05 -23.77,-51.2 -111.57,-33.53 -191.63,-167.17 -17.96,-29.98 -20.7,-52.43 -67.33,-53.16 -116.5,-1.83 -241.54,0.03 -359.68,0.03 -147.52,0 -99.49,-4.99 -161.62,81.22 -34.39,47.72 -79.85,80.98 -134.67,105.07 -36.3,15.96 -42.91,28.8 -42.82,76.1 0.33,171.33 6.69,266.79 72.74,408.17 74.45,159.39 197.3,283.67 348.32,371 24.71,14.29 53.49,34.65 86.85,18.35 122.01,-59.63 246.22,-172.25 321.13,-283.08 58.57,-86.66 119.68,-221.44 129,-352.48z"/>
   <path class="fil0" d="M570.23 813.46c60.29,-0.05 120.59,-0.07 180.88,-0 33.82,0.04 51.29,-0.8 67.49,-21.92 15.5,-20.21 12.31,-46.25 12.31,-74.76 0,-60.34 -0,-120.68 0,-181.03 0,-30.92 3.28,-54.37 -16.25,-73.36 -26.53,-25.8 -35.51,-12.05 -69.57,-18.47 -2.21,-73.1 7.82,-131.99 -32.6,-185.14 -29.23,-38.42 -70.98,-71.94 -144.16,-73.08 -33.03,1.11 -58.76,9.22 -83.41,22.7 -20.39,11.15 -44.74,33.6 -56.53,51.11 -41.5,61.64 -27.76,105.12 -32.14,185.41 -80.47,0 -85.65,21.54 -85.65,93.28 0,59.53 0,119.05 0,178.58 -0,73.53 3.94,96.77 80.9,96.7 59.58,-0.06 119.16,0.04 178.74,-0.01z"/>
   <path class="fil1" d="M570.23 1113.57l0 -300.11c-59.58,0.05 -119.16,-0.05 -178.74,0.01 -76.96,0.08 -80.9,-23.16 -80.9,-96.7 0,-59.53 0,-119.05 0,-178.58 -0,-71.73 5.18,-93.28 85.65,-93.28 4.38,-80.29 -9.36,-123.77 32.14,-185.41 11.79,-17.51 36.15,-39.96 56.53,-51.11 24.65,-13.48 50.38,-21.59 83.41,-22.7 4.48,-15.6 1.9,-47.33 1.9,-64.96l-228.09 -1.01c-13.97,3.08 -15.52,14.69 -23.2,27.9 -7.15,12.28 -11.48,20.47 -19.67,31.72 -16.27,22.35 -30.27,37.61 -48.39,54.38 -31.33,29.01 -53.61,43.35 -92.09,62.02 -10.62,5.15 -28.81,9.38 -32.68,20.97 -6.01,17.95 0.43,172.76 3.72,199.6 17,138.85 69.56,256.82 151.87,364.06 24.95,32.51 56.32,67.19 86.65,94.46 5.12,4.6 8,8.75 13.31,13.47l57.93 47.28c18.44,13.74 106.72,74.56 130.65,77.98z"/>
   <path class="fil2" d="M24.55 542.43c1.96,9.5 3.22,20.14 4.88,30.02 1.46,8.72 4.06,20.07 4.9,28.24 16.95,0.58 20.13,5.69 23.81,21.37 28.55,121.34 98.44,263.47 180.55,350.23 8.08,8.54 10.39,13.14 20.9,23.13 36.08,34.29 44.32,48.46 91.77,86.8 16.08,12.99 31.36,25.04 49.92,38.14 15.32,10.81 151.75,97.53 170.89,95.61 9.11,-0.92 161.78,-84.91 166.7,-97.81 5.74,-9.36 24.02,-22.6 32.01,-29.4l58.36 -58.99c8.35,-10.26 17.58,-20.74 25.87,-30.46 73.38,-86.1 125.77,-185.71 161.54,-298.42 8.36,-26.34 42.36,-174.27 30.48,-194 -9.32,131.03 -70.43,265.82 -129,352.48 -74.91,110.83 -199.12,223.45 -321.13,283.08 -33.36,16.3 -62.14,-4.06 -86.85,-18.35 -151.02,-87.33 -273.86,-211.61 -348.32,-371 -66.04,-141.38 -72.4,-236.84 -72.74,-408.17 -0.09,-47.3 6.51,-60.14 42.82,-76.1 54.81,-24.1 100.28,-57.35 134.67,-105.07 62.12,-86.21 14.09,-81.22 161.62,-81.22 118.13,0 243.18,-1.85 359.68,-0.03 46.63,0.73 49.37,23.18 67.33,53.16 80.06,133.63 167.85,115.97 191.63,167.17 5.48,-4.08 1.86,0.55 3.63,-7.01 0.05,-0.22 0.51,-6.59 0.52,-7 0.06,-3.8 -0.42,-11 -1.07,-14.77 -7.82,-45.62 -68.68,-5.36 -146.82,-83.59 -19.56,-19.58 -30.66,-29.72 -45.61,-59.51 -14.56,-29.03 -25.48,-57.87 -29.17,-95.14 -56.92,-1.01 -550.92,-3.3 -562.05,2.65 -6.98,4.98 -7.19,24.18 -12.61,41.37 -4.2,13.32 -10.14,27.22 -16.05,37.86 -15.48,27.88 -29.39,41.14 -47.82,59.78 -13.64,13.8 -42.75,32.42 -65.69,41.91 -14.06,5.82 -24.84,9.56 -40.24,13.45 -56.52,14.31 -46.7,-11.8 -46.7,87.62 0,47.56 -1.3,117.59 1.08,162.7 1.37,25.88 11.31,52.77 -13.68,59.26z"/>
   <path class="fil0" d="M24.55 542.43c24.99,-6.49 15.05,-33.38 13.68,-59.26 -2.38,-45.11 -1.08,-115.14 -1.08,-162.7 0,-99.41 -9.81,-73.31 46.7,-87.62 15.4,-3.9 26.19,-7.64 40.24,-13.45 22.94,-9.5 52.05,-28.11 65.69,-41.91 18.42,-18.64 32.34,-31.9 47.82,-59.78 5.91,-10.64 11.85,-24.54 16.05,-37.86 5.42,-17.2 5.63,-36.4 12.61,-41.37 11.13,-5.95 505.13,-3.66 562.05,-2.65 47.79,-0.57 47.79,-4.56 52.78,22.4 13.28,71.62 69.74,134.24 134.95,161.21 98.8,40.86 86.94,-17.73 86.94,101.05 0,47.49 1.26,116.22 -1.04,161.4 -3.14,61.53 -8.16,44.09 12.95,61.21 21.69,-4.44 22.91,-17.46 22.79,-48.86 -0.09,-23.57 2.38,-42.56 2.38,-68.56 0,-47.29 -0,-94.59 0,-141.89 0,-29.42 2.27,-41.89 -10.14,-60.81 -23.7,-36.14 -73.55,-5.39 -147,-65.83 -28.55,-23.49 -45.24,-44.22 -59.6,-82.29 -15.64,-41.47 -5.72,-74 -63.58,-74.85l-575.82 0c-61.48,0.48 -50.92,29.64 -66.45,73.07 -14.69,41.08 -41.54,74.93 -78.69,97.44 -73.98,44.83 -106.08,19.89 -127.61,50.98 -12.85,18.56 -11.11,30.68 -11.1,59.84l5.13 244.39c1.64,11.18 6.86,17.07 19.33,16.71z"/>
   <path class="fil0" d="M1105.81 601.99c-28,-0.43 -20.67,17.2 -37.88,72.02 -42.13,134.2 -112.19,246.4 -207.55,342.85 -21.7,21.95 -94.84,90.65 -121.5,101.3 -4.92,12.9 -157.58,96.89 -166.7,97.81 -19.14,1.93 -155.57,-84.8 -170.89,-95.61 -18.57,-13.1 -33.85,-25.15 -49.92,-38.14 -47.45,-38.34 -55.7,-52.52 -91.77,-86.8 -10.51,-9.99 -12.81,-14.59 -20.9,-23.13 -82.1,-86.76 -152,-228.89 -180.55,-350.23 -3.69,-15.68 -6.87,-20.79 -23.81,-21.37 -21.74,9.77 -14.42,23.54 -5.76,53.35 24.08,82.91 45.5,139.41 89.99,213.35 45.89,76.26 50.18,73.71 95.38,132.13 17.56,22.7 52.72,56.25 75.4,76.28 7.78,6.87 10.83,10.51 19.34,17.36l63.92 51.06c26.45,19.78 85.65,57.11 115.9,72.47 42.17,21.4 60.76,33.05 75.39,35.84l13.47 0c14.37,-2.83 31.12,-14.55 71.03,-34.23 82.92,-40.9 173.94,-111.62 240.33,-177.99 33.5,-33.49 76.38,-85.63 102.65,-124.86 10.72,-16.02 19.22,-29.83 29.3,-46.53 45.36,-75.12 65.82,-129.67 90.35,-212.99 5.5,-18.7 18.26,-48.61 -5.19,-53.91z"/>
   <path class="fil3" d="M1046.83 302.84c10.09,31.02 3.04,164.11 0.3,204.05 11.88,19.73 -22.12,167.66 -30.48,194 -35.76,112.71 -88.16,212.32 -161.54,298.42 -8.28,9.72 -17.52,20.2 -25.87,30.46l-58.36 58.99c-7.99,6.8 -26.26,20.03 -32.01,29.4 26.66,-10.66 99.8,-79.35 121.5,-101.3 95.36,-96.45 165.42,-208.65 207.55,-342.85 17.21,-54.81 9.88,-72.45 37.88,-72.02 1.42,-17.68 9.77,-40.87 9.08,-58.91 -21.11,-17.13 -16.09,0.31 -12.95,-61.21 2.31,-45.18 1.04,-113.91 1.04,-161.4 0,-118.78 11.86,-60.2 -86.94,-101.05 -65.22,-26.97 -121.68,-89.59 -134.95,-161.21 -5,-26.95 -4.99,-22.96 -52.78,-22.4 3.7,37.27 14.61,66.12 29.17,95.14 14.95,29.8 26.05,39.93 45.61,59.51 78.14,78.22 139,37.97 146.82,83.59 0.65,3.76 1.13,10.97 1.07,14.77 -0.01,0.41 -0.47,6.78 -0.52,7 -1.77,7.57 1.85,2.94 -3.63,7.01z"/>
   <path class="fil4" d="M685.06 1044.56c23.11,-9.36 79.66,-62.12 99.67,-81.33 10.98,-10.54 19.22,-21.28 29.92,-31.28 16.54,-15.45 40.48,-46.79 54.43,-65.42 97.22,-129.8 146.39,-277 146.34,-458 -0.01,-19.57 -0.03,-39.14 0,-58.71 0.03,-21.83 4.89,-36.95 -15.26,-45.98 -76.68,-34.38 -119.69,-67.29 -166.18,-134.73 -40.48,-58.71 3.25,-51.16 -129.37,-51.15 -40.77,0 -81.55,0.08 -122.32,0 -32.8,-0.06 -226.61,-3.95 -240.17,1.75l228.09 1.01c0,17.63 2.58,49.37 -1.9,64.96 73.17,1.14 114.93,34.66 144.16,73.08 40.42,53.15 30.39,112.03 32.6,185.14 34.06,6.42 43.04,-7.33 69.57,18.47 19.53,19 16.25,42.45 16.25,73.36 -0,60.34 0,120.69 0,181.03 0,28.51 3.19,54.55 -12.31,74.76 -16.2,21.13 -33.67,21.96 -67.49,21.92 -60.29,-0.07 -120.59,-0.05 -180.88,0l0 300.11c20.51,-3.03 110.11,-59.45 114.84,-69.01z"/>
   <path class="fil4" d="M432.34 443.84c19.29,5.28 239.57,2.07 276.67,0.89 2.53,-54.36 5.08,-119.2 -21.18,-158.87 -23.01,-34.75 -58.63,-62.43 -117.6,-64.53l0.46 222.51 -138.34 0z"/>
   <path class="fil1" d="M432.34 443.84l138.34 0 -0.46 -222.51c-57.3,2.67 -95.37,30.25 -116.02,64.03 -28.64,46.86 -22.84,97.06 -21.86,158.48z"/>
   <path class="fil5" d="M737.43 778.01c67.74,-0.9 57.86,18.25 57.86,-139.52 0,-32.62 -0,-65.24 0,-97.85 0,-45.31 9.04,-60.26 -39.25,-60.03l-296.05 -0.23c-17.9,0 -87.41,-4.94 -96.88,2.59 -23.68,0.52 -16.9,34.57 -16.9,69.89l-0 176.13c-0.05,40.38 -2.5,49.19 40.37,48.97 116.68,-0.59 234.19,-0.9 350.84,0.04z"/>
   <path class="fil0" d="M552.95 650.72c0,21.61 -7.95,64.42 17.32,65.16 26.77,0.79 18.28,-44.99 18.28,-65.16 5.59,-10.15 10.87,-7.45 18.02,-19.81 32.44,-56.08 -64,-91.3 -76.51,-30.03 -6.3,30.84 18.2,41.12 22.89,49.84z"/>
  </g>
 </g>
</svg>
